<svg width="1051" height="1000" xmlns="http://www.w3.org/2000/svg" version="1.1">


<!-- internal style sheet -->
<style type="text/css"><![CDATA[
 rect.background{fill:white}
 rect{fill:none; stroke:rgb(25,25,25); stroke-width:2}
 text{font-family:Helvetica; text-anchor:middle; fill:rgb(25,25,25)}
 line{stroke:rgb(25,25,25); stroke-width:4}
 path{fill:none; stroke:rgb(25,25,25); stroke-width:2}
 circle{fill:white; stroke:black; stroke-width:2}

 path.p0{fill:rgb(0,102,255); stroke:rgb(25,25,25); stroke-width:2}
 path.ps0{fill:rgb(0,77,191); stroke:rgb(20,20,20); stroke-width:2}
 rect.r0{fill:rgb(0,102,255); stroke:rgb(25,25,25); stroke-width:2}
 path.p1{fill:rgb(0,255,224); stroke:rgb(25,25,25); stroke-width:2}
 path.ps1{fill:rgb(0,191,168); stroke:rgb(20,20,20); stroke-width:2}
 rect.r1{fill:rgb(0,255,224); stroke:rgb(25,25,25); stroke-width:2}
 path.p2{fill:rgb(0,255,41); stroke:rgb(25,25,25); stroke-width:2}
 path.ps2{fill:rgb(0,191,31); stroke:rgb(20,20,20); stroke-width:2}
 rect.r2{fill:rgb(0,255,41); stroke:rgb(25,25,25); stroke-width:2}
 path.p3{fill:rgb(143,255,0); stroke:rgb(25,25,25); stroke-width:2}
 path.ps3{fill:rgb(107,191,0); stroke:rgb(20,20,20); stroke-width:2}
 rect.r3{fill:rgb(143,255,0); stroke:rgb(25,25,25); stroke-width:2}
 path.p4{fill:rgb(255,184,0); stroke:rgb(25,25,25); stroke-width:2}
 path.ps4{fill:rgb(191,138,0); stroke:rgb(20,20,20); stroke-width:2}
 rect.r4{fill:rgb(255,184,0); stroke:rgb(25,25,25); stroke-width:2}
 path.p5{fill:rgb(255,0,0); stroke:rgb(25,25,25); stroke-width:2}
 path.ps5{fill:rgb(191,0,0); stroke:rgb(20,20,20); stroke-width:2}
 rect.r5{fill:rgb(255,0,0); stroke:rgb(25,25,25); stroke-width:2}
]]></style>

 <rect class="background" width="1051" height="1000"/>
  <!-- cells -->
  <path class="p1" d="M 967 500 L 925 370 L 825 403 L 857 500 L 967 500"/>
  <line x1="967" y1="500" x2="925" y2="370"/>
  <path class="p1" d="M 925 370 L 883 240 L 793 305 L 825 403 L 925 370"/>
  <line x1="925" y1="370" x2="883" y2="240"/>
  <path class="p1" d="M 883 240 L 772 160 L 711 245 L 793 305 L 883 240"/>
  <line x1="883" y1="240" x2="772" y2="160"/>
  <path class="p1" d="M 772 160 L 662 80 L 628 185 L 711 245 L 772 160"/>
  <line x1="772" y1="160" x2="662" y2="80"/>
  <path class="p1" d="M 662 80 L 526 80 L 526 185 L 628 185 L 662 80"/>
  <line x1="662" y1="80" x2="526" y2="80"/>
  <path class="p1" d="M 526 80 L 389 80 L 423 185 L 526 185 L 526 80"/>
  <line x1="526" y1="80" x2="389" y2="80"/>
  <path class="p1" d="M 389 80 L 279 160 L 340 245 L 423 185 L 389 80"/>
  <line x1="389" y1="80" x2="279" y2="160"/>
  <path class="p1" d="M 279 160 L 168 240 L 258 305 L 340 245 L 279 160"/>
  <line x1="279" y1="160" x2="168" y2="240"/>
  <path class="p1" d="M 168 240 L 126 370 L 226 403 L 258 305 L 168 240"/>
  <line x1="168" y1="240" x2="126" y2="370"/>
  <path class="p1" d="M 126 370 L 84 500 L 194 500 L 226 403 L 126 370"/>
  <line x1="126" y1="370" x2="84" y2="500"/>
  <path class="p1" d="M 84 500 L 126 630 L 226 597 L 194 500 L 84 500"/>
  <line x1="84" y1="500" x2="126" y2="630"/>
  <path class="p1" d="M 126 630 L 168 760 L 258 695 L 226 597 L 126 630"/>
  <line x1="126" y1="630" x2="168" y2="760"/>
  <path class="p1" d="M 168 760 L 279 840 L 340 755 L 258 695 L 168 760"/>
  <line x1="168" y1="760" x2="279" y2="840"/>
  <path class="p1" d="M 279 840 L 389 920 L 423 815 L 340 755 L 279 840"/>
  <line x1="279" y1="840" x2="389" y2="920"/>
  <path class="p1" d="M 389 920 L 526 920 L 526 815 L 423 815 L 389 920"/>
  <line x1="389" y1="920" x2="526" y2="920"/>
  <path class="p1" d="M 526 920 L 662 920 L 628 815 L 526 815 L 526 920"/>
  <line x1="526" y1="920" x2="662" y2="920"/>
  <path class="p1" d="M 662 920 L 772 840 L 711 755 L 628 815 L 662 920"/>
  <line x1="662" y1="920" x2="772" y2="840"/>
  <path class="p1" d="M 772 840 L 883 760 L 793 695 L 711 755 L 772 840"/>
  <line x1="772" y1="840" x2="883" y2="760"/>
  <path class="p1" d="M 883 760 L 925 630 L 825 597 L 793 695 L 883 760"/>
  <line x1="883" y1="760" x2="925" y2="630"/>
  <path class="p1" d="M 925 630 L 967 500 L 857 500 L 825 597 L 925 630"/>
  <line x1="925" y1="630" x2="967" y2="500"/>
  <path class="p2" d="M 857 500 L 841 451 L 788 459 L 801 500 L 857 500"/>
  <path class="p2" d="M 841 451 L 825 403 L 775 419 L 788 459 L 841 451"/>
  <path class="p2" d="M 788 459 L 775 419 L 725 435 L 736 468 L 788 459"/>
  <line x1="736" y1="468" x2="725" y2="435"/>
  <path class="p2" d="M 825 403 L 809 354 L 762 378 L 775 419 L 825 403"/>
  <path class="p2" d="M 809 354 L 793 305 L 749 338 L 762 378 L 809 354"/>
  <path class="p2" d="M 775 419 L 762 378 L 715 403 L 725 435 L 775 419"/>
  <line x1="725" y1="435" x2="715" y2="403"/>
  <path class="p2" d="M 793 305 L 752 275 L 714 313 L 749 338 L 793 305"/>
  <path class="p2" d="M 752 275 L 711 245 L 680 288 L 714 313 L 752 275"/>
  <path class="p2" d="M 714 313 L 680 288 L 649 330 L 676 350 L 714 313"/>
  <line x1="676" y1="350" x2="649" y2="330"/>
  <path class="p2" d="M 711 245 L 669 215 L 645 263 L 680 288 L 711 245"/>
  <path class="p2" d="M 669 215 L 628 185 L 611 238 L 645 263 L 669 215"/>
  <path class="p2" d="M 680 288 L 645 263 L 621 310 L 649 330 L 680 288"/>
  <line x1="649" y1="330" x2="621" y2="310"/>
  <path class="p2" d="M 628 185 L 577 185 L 568 238 L 611 238 L 628 185"/>
  <path class="p2" d="M 577 185 L 526 185 L 526 238 L 568 238 L 577 185"/>
  <path class="p2" d="M 568 238 L 526 238 L 526 290 L 560 290 L 568 238"/>
  <line x1="560" y1="290" x2="526" y2="290"/>
  <path class="p2" d="M 526 185 L 474 185 L 483 238 L 526 238 L 526 185"/>
  <path class="p2" d="M 474 185 L 423 185 L 440 238 L 483 238 L 474 185"/>
  <path class="p2" d="M 526 238 L 483 238 L 491 290 L 526 290 L 526 238"/>
  <line x1="526" y1="290" x2="491" y2="290"/>
  <path class="p2" d="M 423 185 L 382 215 L 406 263 L 440 238 L 423 185"/>
  <path class="p2" d="M 382 215 L 340 245 L 371 288 L 406 263 L 382 215"/>
  <path class="p2" d="M 406 263 L 371 288 L 402 330 L 430 310 L 406 263"/>
  <line x1="430" y1="310" x2="402" y2="330"/>
  <path class="p2" d="M 340 245 L 299 275 L 337 313 L 371 288 L 340 245"/>
  <path class="p2" d="M 299 275 L 258 305 L 302 338 L 337 313 L 299 275"/>
  <path class="p2" d="M 371 288 L 337 313 L 375 350 L 402 330 L 371 288"/>
  <line x1="402" y1="330" x2="375" y2="350"/>
  <path class="p2" d="M 258 305 L 242 354 L 289 378 L 302 338 L 258 305"/>
  <path class="p2" d="M 242 354 L 226 403 L 276 419 L 289 378 L 242 354"/>
  <path class="p2" d="M 289 378 L 276 419 L 326 435 L 336 403 L 289 378"/>
  <line x1="336" y1="403" x2="326" y2="435"/>
  <path class="p2" d="M 226 403 L 210 451 L 263 459 L 276 419 L 226 403"/>
  <path class="p2" d="M 210 451 L 194 500 L 250 500 L 263 459 L 210 451"/>
  <path class="p2" d="M 276 419 L 263 459 L 315 468 L 326 435 L 276 419"/>
  <line x1="326" y1="435" x2="315" y2="468"/>
  <path class="p2" d="M 194 500 L 210 549 L 263 541 L 250 500 L 194 500"/>
  <path class="p2" d="M 210 549 L 226 597 L 276 581 L 263 541 L 210 549"/>
  <path class="p2" d="M 263 541 L 276 581 L 326 565 L 315 532 L 263 541"/>
  <line x1="315" y1="532" x2="326" y2="565"/>
  <path class="p2" d="M 226 597 L 242 646 L 289 622 L 276 581 L 226 597"/>
  <path class="p2" d="M 242 646 L 258 695 L 302 662 L 289 622 L 242 646"/>
  <path class="p2" d="M 276 581 L 289 622 L 336 597 L 326 565 L 276 581"/>
  <line x1="326" y1="565" x2="336" y2="597"/>
  <path class="p2" d="M 258 695 L 299 725 L 337 687 L 302 662 L 258 695"/>
  <path class="p2" d="M 299 725 L 340 755 L 371 712 L 337 687 L 299 725"/>
  <path class="p2" d="M 337 687 L 371 712 L 402 670 L 375 650 L 337 687"/>
  <line x1="375" y1="650" x2="402" y2="670"/>
  <path class="p2" d="M 340 755 L 382 785 L 406 737 L 371 712 L 340 755"/>
  <path class="p2" d="M 382 785 L 423 815 L 440 762 L 406 737 L 382 785"/>
  <path class="p2" d="M 371 712 L 406 737 L 430 690 L 402 670 L 371 712"/>
  <line x1="402" y1="670" x2="430" y2="690"/>
  <path class="p2" d="M 423 815 L 474 815 L 483 762 L 440 762 L 423 815"/>
  <path class="p2" d="M 474 815 L 526 815 L 526 762 L 483 762 L 474 815"/>
  <path class="p2" d="M 483 762 L 526 762 L 526 710 L 491 710 L 483 762"/>
  <line x1="491" y1="710" x2="526" y2="710"/>
  <path class="p2" d="M 526 815 L 577 815 L 568 762 L 526 762 L 526 815"/>
  <path class="p2" d="M 577 815 L 628 815 L 611 762 L 568 762 L 577 815"/>
  <path class="p2" d="M 526 762 L 568 762 L 560 710 L 526 710 L 526 762"/>
  <line x1="526" y1="710" x2="560" y2="710"/>
  <path class="p2" d="M 628 815 L 669 785 L 645 737 L 611 762 L 628 815"/>
  <path class="p2" d="M 669 785 L 711 755 L 680 712 L 645 737 L 669 785"/>
  <path class="p2" d="M 645 737 L 680 712 L 649 670 L 621 690 L 645 737"/>
  <line x1="621" y1="690" x2="649" y2="670"/>
  <path class="p2" d="M 711 755 L 752 725 L 714 687 L 680 712 L 711 755"/>
  <path class="p2" d="M 752 725 L 793 695 L 749 662 L 714 687 L 752 725"/>
  <path class="p2" d="M 680 712 L 714 687 L 676 650 L 649 670 L 680 712"/>
  <line x1="649" y1="670" x2="676" y2="650"/>
  <path class="p2" d="M 793 695 L 809 646 L 762 622 L 749 662 L 793 695"/>
  <path class="p2" d="M 809 646 L 825 597 L 775 581 L 762 622 L 809 646"/>
  <path class="p2" d="M 762 622 L 775 581 L 725 565 L 715 597 L 762 622"/>
  <line x1="715" y1="597" x2="725" y2="565"/>
  <path class="p2" d="M 825 597 L 841 549 L 788 541 L 775 581 L 825 597"/>
  <path class="p2" d="M 841 549 L 857 500 L 801 500 L 788 541 L 841 549"/>
  <path class="p2" d="M 775 581 L 788 541 L 736 532 L 725 565 L 775 581"/>
  <line x1="725" y1="565" x2="736" y2="532"/>
  <path class="p3" d="M 801 500 L 795 480 L 768 482 L 774 500 L 801 500"/>
  <path class="p3" d="M 795 480 L 788 459 L 762 463 L 768 482 L 795 480"/>
  <path class="p3" d="M 768 482 L 762 463 L 736 468 L 741 484 L 768 482"/>
  <line x1="741" y1="484" x2="736" y2="468"/>
  <path class="p3" d="M 762 378 L 755 358 L 732 372 L 738 390 L 762 378"/>
  <path class="p3" d="M 755 358 L 749 338 L 726 354 L 732 372 L 755 358"/>
  <path class="p3" d="M 738 390 L 732 372 L 709 386 L 715 403 L 738 390"/>
  <line x1="715" y1="403" x2="709" y2="386"/>
  <path class="p3" d="M 749 338 L 731 325 L 711 343 L 726 354 L 749 338"/>
  <path class="p3" d="M 731 325 L 714 313 L 695 331 L 711 343 L 731 325"/>
  <path class="p3" d="M 711 343 L 695 331 L 676 350 L 690 360 L 711 343"/>
  <line x1="690" y1="360" x2="676" y2="350"/>
  <path class="p3" d="M 645 263 L 628 250 L 618 275 L 633 286 L 645 263"/>
  <path class="p3" d="M 628 250 L 611 238 L 602 264 L 618 275 L 628 250"/>
  <path class="p3" d="M 633 286 L 618 275 L 607 300 L 621 310 L 633 286"/>
  <line x1="621" y1="310" x2="607" y2="300"/>
  <path class="p3" d="M 611 238 L 589 238 L 583 264 L 602 264 L 611 238"/>
  <path class="p3" d="M 589 238 L 568 238 L 564 264 L 583 264 L 589 238"/>
  <path class="p3" d="M 583 264 L 564 264 L 560 290 L 577 290 L 583 264"/>
  <line x1="577" y1="290" x2="560" y2="290"/>
  <path class="p3" d="M 483 238 L 462 238 L 468 264 L 487 264 L 483 238"/>
  <path class="p3" d="M 462 238 L 440 238 L 449 264 L 468 264 L 462 238"/>
  <path class="p3" d="M 487 264 L 468 264 L 474 290 L 491 290 L 487 264"/>
  <line x1="491" y1="290" x2="474" y2="290"/>
  <path class="p3" d="M 440 238 L 423 250 L 433 275 L 449 264 L 440 238"/>
  <path class="p3" d="M 423 250 L 406 263 L 418 286 L 433 275 L 423 250"/>
  <path class="p3" d="M 433 275 L 418 286 L 430 310 L 444 300 L 433 275"/>
  <line x1="444" y1="300" x2="430" y2="310"/>
  <path class="p3" d="M 337 313 L 320 325 L 340 343 L 356 331 L 337 313"/>
  <path class="p3" d="M 320 325 L 302 338 L 325 354 L 340 343 L 320 325"/>
  <path class="p3" d="M 356 331 L 340 343 L 361 360 L 375 350 L 356 331"/>
  <line x1="375" y1="350" x2="361" y2="360"/>
  <path class="p3" d="M 302 338 L 296 358 L 319 372 L 325 354 L 302 338"/>
  <path class="p3" d="M 296 358 L 289 378 L 313 390 L 319 372 L 296 358"/>
  <path class="p3" d="M 319 372 L 313 390 L 336 403 L 342 386 L 319 372"/>
  <line x1="342" y1="386" x2="336" y2="403"/>
  <path class="p3" d="M 263 459 L 256 480 L 283 482 L 289 463 L 263 459"/>
  <path class="p3" d="M 256 480 L 250 500 L 277 500 L 283 482 L 256 480"/>
  <path class="p3" d="M 289 463 L 283 482 L 310 484 L 315 468 L 289 463"/>
  <line x1="315" y1="468" x2="310" y2="484"/>
  <path class="p3" d="M 250 500 L 256 520 L 283 518 L 277 500 L 250 500"/>
  <path class="p3" d="M 256 520 L 263 541 L 289 537 L 283 518 L 256 520"/>
  <path class="p3" d="M 283 518 L 289 537 L 315 532 L 310 516 L 283 518"/>
  <line x1="310" y1="516" x2="315" y2="532"/>
  <path class="p3" d="M 289 622 L 296 642 L 319 628 L 313 610 L 289 622"/>
  <path class="p3" d="M 296 642 L 302 662 L 325 646 L 319 628 L 296 642"/>
  <path class="p3" d="M 313 610 L 319 628 L 342 614 L 336 597 L 313 610"/>
  <line x1="336" y1="597" x2="342" y2="614"/>
  <path class="p3" d="M 302 662 L 320 675 L 340 657 L 325 646 L 302 662"/>
  <path class="p3" d="M 320 675 L 337 687 L 356 669 L 340 657 L 320 675"/>
  <path class="p3" d="M 340 657 L 356 669 L 375 650 L 361 640 L 340 657"/>
  <line x1="361" y1="640" x2="375" y2="650"/>
  <path class="p3" d="M 406 737 L 423 750 L 433 725 L 418 714 L 406 737"/>
  <path class="p3" d="M 423 750 L 440 762 L 449 736 L 433 725 L 423 750"/>
  <path class="p3" d="M 418 714 L 433 725 L 444 700 L 430 690 L 418 714"/>
  <line x1="430" y1="690" x2="444" y2="700"/>
  <path class="p3" d="M 440 762 L 462 762 L 468 736 L 449 736 L 440 762"/>
  <path class="p3" d="M 462 762 L 483 762 L 487 736 L 468 736 L 462 762"/>
  <path class="p3" d="M 468 736 L 487 736 L 491 710 L 474 710 L 468 736"/>
  <line x1="474" y1="710" x2="491" y2="710"/>
  <path class="p3" d="M 568 762 L 589 762 L 583 736 L 564 736 L 568 762"/>
  <path class="p3" d="M 589 762 L 611 762 L 602 736 L 583 736 L 589 762"/>
  <path class="p3" d="M 564 736 L 583 736 L 577 710 L 560 710 L 564 736"/>
  <line x1="560" y1="710" x2="577" y2="710"/>
  <path class="p3" d="M 611 762 L 628 750 L 618 725 L 602 736 L 611 762"/>
  <path class="p3" d="M 628 750 L 645 737 L 633 714 L 618 725 L 628 750"/>
  <path class="p3" d="M 618 725 L 633 714 L 621 690 L 607 700 L 618 725"/>
  <line x1="607" y1="700" x2="621" y2="690"/>
  <path class="p3" d="M 714 687 L 731 675 L 711 657 L 695 669 L 714 687"/>
  <path class="p3" d="M 731 675 L 749 662 L 726 646 L 711 657 L 731 675"/>
  <path class="p3" d="M 695 669 L 711 657 L 690 640 L 676 650 L 695 669"/>
  <line x1="676" y1="650" x2="690" y2="640"/>
  <path class="p3" d="M 749 662 L 755 642 L 732 628 L 726 646 L 749 662"/>
  <path class="p3" d="M 755 642 L 762 622 L 738 610 L 732 628 L 755 642"/>
  <path class="p3" d="M 732 628 L 738 610 L 715 597 L 709 614 L 732 628"/>
  <line x1="709" y1="614" x2="715" y2="597"/>
  <path class="p3" d="M 788 541 L 795 520 L 768 518 L 762 537 L 788 541"/>
  <path class="p3" d="M 795 520 L 801 500 L 774 500 L 768 518 L 795 520"/>
  <path class="p3" d="M 762 537 L 768 518 L 741 516 L 736 532 L 762 537"/>
  <line x1="736" y1="532" x2="741" y2="516"/>
  <path class="p4" d="M 774 500 L 771 491 L 757 491 L 760 500 L 774 500"/>
  <path class="p4" d="M 771 491 L 768 482 L 754 483 L 757 491 L 771 491"/>
  <path class="p4" d="M 757 491 L 754 483 L 741 484 L 744 492 L 757 491"/>
  <line x1="744" y1="492" x2="741" y2="484"/>
  <path class="p4" d="M 732 372 L 729 363 L 718 371 L 721 379 L 732 372"/>
  <path class="p4" d="M 729 363 L 726 354 L 715 362 L 718 371 L 729 363"/>
  <path class="p4" d="M 721 379 L 718 371 L 707 378 L 709 386 L 721 379"/>
  <line x1="709" y1="386" x2="707" y2="378"/>
  <path class="p4" d="M 726 354 L 719 348 L 708 357 L 715 362 L 726 354"/>
  <path class="p4" d="M 719 348 L 711 343 L 701 351 L 708 357 L 719 348"/>
  <path class="p4" d="M 708 357 L 701 351 L 690 360 L 697 365 L 708 357"/>
  <line x1="697" y1="365" x2="690" y2="360"/>
  <path class="p4" d="M 618 275 L 610 269 L 605 282 L 613 288 L 618 275"/>
  <path class="p4" d="M 610 269 L 602 264 L 598 277 L 605 282 L 610 269"/>
  <path class="p4" d="M 613 288 L 605 282 L 601 295 L 607 300 L 613 288"/>
  <line x1="607" y1="300" x2="601" y2="295"/>
  <path class="p4" d="M 602 264 L 593 264 L 589 277 L 598 277 L 602 264"/>
  <path class="p4" d="M 593 264 L 583 264 L 580 277 L 589 277 L 593 264"/>
  <path class="p4" d="M 589 277 L 580 277 L 577 290 L 585 290 L 589 277"/>
  <line x1="585" y1="290" x2="577" y2="290"/>
  <path class="p4" d="M 468 264 L 458 264 L 462 277 L 471 277 L 468 264"/>
  <path class="p4" d="M 458 264 L 449 264 L 453 277 L 462 277 L 458 264"/>
  <path class="p4" d="M 471 277 L 462 277 L 466 290 L 474 290 L 471 277"/>
  <line x1="474" y1="290" x2="466" y2="290"/>
  <path class="p4" d="M 449 264 L 441 269 L 446 282 L 453 277 L 449 264"/>
  <path class="p4" d="M 441 269 L 433 275 L 438 288 L 446 282 L 441 269"/>
  <path class="p4" d="M 446 282 L 438 288 L 444 300 L 450 295 L 446 282"/>
  <line x1="450" y1="295" x2="444" y2="300"/>
  <path class="p4" d="M 340 343 L 332 348 L 343 357 L 350 351 L 340 343"/>
  <path class="p4" d="M 332 348 L 325 354 L 336 362 L 343 357 L 332 348"/>
  <path class="p4" d="M 350 351 L 343 357 L 354 365 L 361 360 L 350 351"/>
  <line x1="361" y1="360" x2="354" y2="365"/>
  <path class="p4" d="M 325 354 L 322 363 L 333 371 L 336 362 L 325 354"/>
  <path class="p4" d="M 322 363 L 319 372 L 330 379 L 333 371 L 322 363"/>
  <path class="p4" d="M 333 371 L 330 379 L 342 386 L 344 378 L 333 371"/>
  <line x1="344" y1="378" x2="342" y2="386"/>
  <path class="p4" d="M 283 482 L 280 491 L 294 491 L 297 483 L 283 482"/>
  <path class="p4" d="M 280 491 L 277 500 L 291 500 L 294 491 L 280 491"/>
  <path class="p4" d="M 297 483 L 294 491 L 307 492 L 310 484 L 297 483"/>
  <line x1="310" y1="484" x2="307" y2="492"/>
  <path class="p4" d="M 277 500 L 280 509 L 294 509 L 291 500 L 277 500"/>
  <path class="p4" d="M 280 509 L 283 518 L 297 517 L 294 509 L 280 509"/>
  <path class="p4" d="M 294 509 L 297 517 L 310 516 L 307 508 L 294 509"/>
  <line x1="307" y1="508" x2="310" y2="516"/>
  <path class="p4" d="M 319 628 L 322 637 L 333 629 L 330 621 L 319 628"/>
  <path class="p4" d="M 322 637 L 325 646 L 336 638 L 333 629 L 322 637"/>
  <path class="p4" d="M 330 621 L 333 629 L 344 622 L 342 614 L 330 621"/>
  <line x1="342" y1="614" x2="344" y2="622"/>
  <path class="p4" d="M 325 646 L 332 652 L 343 643 L 336 638 L 325 646"/>
  <path class="p4" d="M 332 652 L 340 657 L 350 649 L 343 643 L 332 652"/>
  <path class="p4" d="M 343 643 L 350 649 L 361 640 L 354 635 L 343 643"/>
  <line x1="354" y1="635" x2="361" y2="640"/>
  <path class="p4" d="M 433 725 L 441 731 L 446 718 L 438 712 L 433 725"/>
  <path class="p4" d="M 441 731 L 449 736 L 453 723 L 446 718 L 441 731"/>
  <path class="p4" d="M 438 712 L 446 718 L 450 705 L 444 700 L 438 712"/>
  <line x1="444" y1="700" x2="450" y2="705"/>
  <path class="p4" d="M 449 736 L 458 736 L 462 723 L 453 723 L 449 736"/>
  <path class="p4" d="M 458 736 L 468 736 L 471 723 L 462 723 L 458 736"/>
  <path class="p4" d="M 462 723 L 471 723 L 474 710 L 466 710 L 462 723"/>
  <line x1="466" y1="710" x2="474" y2="710"/>
  <path class="p4" d="M 583 736 L 593 736 L 589 723 L 580 723 L 583 736"/>
  <path class="p4" d="M 593 736 L 602 736 L 598 723 L 589 723 L 593 736"/>
  <path class="p4" d="M 580 723 L 589 723 L 585 710 L 577 710 L 580 723"/>
  <line x1="577" y1="710" x2="585" y2="710"/>
  <path class="p4" d="M 602 736 L 610 731 L 605 718 L 598 723 L 602 736"/>
  <path class="p4" d="M 610 731 L 618 725 L 613 712 L 605 718 L 610 731"/>
  <path class="p4" d="M 605 718 L 613 712 L 607 700 L 601 705 L 605 718"/>
  <line x1="601" y1="705" x2="607" y2="700"/>
  <path class="p4" d="M 711 657 L 719 652 L 708 643 L 701 649 L 711 657"/>
  <path class="p4" d="M 719 652 L 726 646 L 715 638 L 708 643 L 719 652"/>
  <path class="p4" d="M 701 649 L 708 643 L 697 635 L 690 640 L 701 649"/>
  <line x1="690" y1="640" x2="697" y2="635"/>
  <path class="p4" d="M 726 646 L 729 637 L 718 629 L 715 638 L 726 646"/>
  <path class="p4" d="M 729 637 L 732 628 L 721 621 L 718 629 L 729 637"/>
  <path class="p4" d="M 718 629 L 721 621 L 709 614 L 707 622 L 718 629"/>
  <line x1="707" y1="622" x2="709" y2="614"/>
  <path class="p4" d="M 768 518 L 771 509 L 757 509 L 754 517 L 768 518"/>
  <path class="p4" d="M 771 509 L 774 500 L 760 500 L 757 509 L 771 509"/>
  <path class="p4" d="M 754 517 L 757 509 L 744 508 L 741 516 L 754 517"/>
  <line x1="741" y1="516" x2="744" y2="508"/>
  <path class="p5" d="M 760 500 L 759 496 L 752 496 L 753 500 L 760 500"/>
  <path class="p5" d="M 759 496 L 757 491 L 750 492 L 752 496 L 759 496"/>
  <path class="p5" d="M 753 500 L 752 496 L 745 496 L 746 500 L 753 500"/>
  <line x1="746" y1="500" x2="745" y2="496"/>
  <path class="p5" d="M 752 496 L 750 492 L 744 492 L 745 496 L 752 496"/>
  <line x1="745" y1="496" x2="744" y2="492"/>
  <path class="p5" d="M 718 371 L 717 366 L 711 370 L 712 375 L 718 371"/>
  <path class="p5" d="M 717 366 L 715 362 L 710 366 L 711 370 L 717 366"/>
  <path class="p5" d="M 712 375 L 711 370 L 705 374 L 707 378 L 712 375"/>
  <line x1="707" y1="378" x2="705" y2="374"/>
  <path class="p5" d="M 711 370 L 710 366 L 704 370 L 705 374 L 711 370"/>
  <line x1="705" y1="374" x2="704" y2="370"/>
  <path class="p5" d="M 715 362 L 712 359 L 706 364 L 710 366 L 715 362"/>
  <path class="p5" d="M 712 359 L 708 357 L 703 361 L 706 364 L 712 359"/>
  <path class="p5" d="M 710 366 L 706 364 L 701 368 L 704 370 L 710 366"/>
  <line x1="704" y1="370" x2="701" y2="368"/>
  <path class="p5" d="M 706 364 L 703 361 L 697 365 L 701 368 L 706 364"/>
  <line x1="701" y1="368" x2="697" y2="365"/>
  <path class="p5" d="M 605 282 L 602 280 L 599 286 L 603 289 L 605 282"/>
  <path class="p5" d="M 602 280 L 598 277 L 596 283 L 599 286 L 602 280"/>
  <path class="p5" d="M 603 289 L 599 286 L 597 293 L 601 295 L 603 289"/>
  <line x1="601" y1="295" x2="597" y2="293"/>
  <path class="p5" d="M 599 286 L 596 283 L 594 290 L 597 293 L 599 286"/>
  <line x1="597" y1="293" x2="594" y2="290"/>
  <path class="p5" d="M 598 277 L 593 277 L 591 283 L 596 283 L 598 277"/>
  <path class="p5" d="M 593 277 L 589 277 L 587 283 L 591 283 L 593 277"/>
  <path class="p5" d="M 596 283 L 591 283 L 589 290 L 594 290 L 596 283"/>
  <line x1="594" y1="290" x2="589" y2="290"/>
  <path class="p5" d="M 591 283 L 587 283 L 585 290 L 589 290 L 591 283"/>
  <line x1="589" y1="290" x2="585" y2="290"/>
  <path class="p5" d="M 462 277 L 458 277 L 460 283 L 464 283 L 462 277"/>
  <path class="p5" d="M 458 277 L 453 277 L 455 283 L 460 283 L 458 277"/>
  <path class="p5" d="M 464 283 L 460 283 L 462 290 L 466 290 L 464 283"/>
  <line x1="466" y1="290" x2="462" y2="290"/>
  <path class="p5" d="M 460 283 L 455 283 L 457 290 L 462 290 L 460 283"/>
  <line x1="462" y1="290" x2="457" y2="290"/>
  <path class="p5" d="M 453 277 L 449 280 L 452 286 L 455 283 L 453 277"/>
  <path class="p5" d="M 449 280 L 446 282 L 448 289 L 452 286 L 449 280"/>
  <path class="p5" d="M 455 283 L 452 286 L 454 293 L 457 290 L 455 283"/>
  <line x1="457" y1="290" x2="454" y2="293"/>
  <path class="p5" d="M 452 286 L 448 289 L 450 295 L 454 293 L 452 286"/>
  <line x1="454" y1="293" x2="450" y2="295"/>
  <path class="p5" d="M 343 357 L 339 359 L 345 364 L 348 361 L 343 357"/>
  <path class="p5" d="M 339 359 L 336 362 L 341 366 L 345 364 L 339 359"/>
  <path class="p5" d="M 348 361 L 345 364 L 350 368 L 354 365 L 348 361"/>
  <line x1="354" y1="365" x2="350" y2="368"/>
  <path class="p5" d="M 345 364 L 341 366 L 347 370 L 350 368 L 345 364"/>
  <line x1="350" y1="368" x2="347" y2="370"/>
  <path class="p5" d="M 336 362 L 334 366 L 340 370 L 341 366 L 336 362"/>
  <path class="p5" d="M 334 366 L 333 371 L 339 375 L 340 370 L 334 366"/>
  <path class="p5" d="M 341 366 L 340 370 L 346 374 L 347 370 L 341 366"/>
  <line x1="347" y1="370" x2="346" y2="374"/>
  <path class="p5" d="M 340 370 L 339 375 L 344 378 L 346 374 L 340 370"/>
  <line x1="346" y1="374" x2="344" y2="378"/>
  <path class="p5" d="M 294 491 L 292 496 L 299 496 L 301 492 L 294 491"/>
  <path class="p5" d="M 292 496 L 291 500 L 298 500 L 299 496 L 292 496"/>
  <path class="p5" d="M 301 492 L 299 496 L 306 496 L 307 492 L 301 492"/>
  <line x1="307" y1="492" x2="306" y2="496"/>
  <path class="p5" d="M 299 496 L 298 500 L 305 500 L 306 496 L 299 496"/>
  <line x1="306" y1="496" x2="305" y2="500"/>
  <path class="p5" d="M 291 500 L 292 504 L 299 504 L 298 500 L 291 500"/>
  <path class="p5" d="M 292 504 L 294 509 L 301 508 L 299 504 L 292 504"/>
  <path class="p5" d="M 298 500 L 299 504 L 306 504 L 305 500 L 298 500"/>
  <line x1="305" y1="500" x2="306" y2="504"/>
  <path class="p5" d="M 299 504 L 301 508 L 307 508 L 306 504 L 299 504"/>
  <line x1="306" y1="504" x2="307" y2="508"/>
  <path class="p5" d="M 333 629 L 334 634 L 340 630 L 339 625 L 333 629"/>
  <path class="p5" d="M 334 634 L 336 638 L 341 634 L 340 630 L 334 634"/>
  <path class="p5" d="M 339 625 L 340 630 L 346 626 L 344 622 L 339 625"/>
  <line x1="344" y1="622" x2="346" y2="626"/>
  <path class="p5" d="M 340 630 L 341 634 L 347 630 L 346 626 L 340 630"/>
  <line x1="346" y1="626" x2="347" y2="630"/>
  <path class="p5" d="M 336 638 L 339 641 L 345 636 L 341 634 L 336 638"/>
  <path class="p5" d="M 339 641 L 343 643 L 348 639 L 345 636 L 339 641"/>
  <path class="p5" d="M 341 634 L 345 636 L 350 632 L 347 630 L 341 634"/>
  <line x1="347" y1="630" x2="350" y2="632"/>
  <path class="p5" d="M 345 636 L 348 639 L 354 635 L 350 632 L 345 636"/>
  <line x1="350" y1="632" x2="354" y2="635"/>
  <path class="p5" d="M 446 718 L 449 720 L 452 714 L 448 711 L 446 718"/>
  <path class="p5" d="M 449 720 L 453 723 L 455 717 L 452 714 L 449 720"/>
  <path class="p5" d="M 448 711 L 452 714 L 454 707 L 450 705 L 448 711"/>
  <line x1="450" y1="705" x2="454" y2="707"/>
  <path class="p5" d="M 452 714 L 455 717 L 457 710 L 454 707 L 452 714"/>
  <line x1="454" y1="707" x2="457" y2="710"/>
  <path class="p5" d="M 453 723 L 458 723 L 460 717 L 455 717 L 453 723"/>
  <path class="p5" d="M 458 723 L 462 723 L 464 717 L 460 717 L 458 723"/>
  <path class="p5" d="M 455 717 L 460 717 L 462 710 L 457 710 L 455 717"/>
  <line x1="457" y1="710" x2="462" y2="710"/>
  <path class="p5" d="M 460 717 L 464 717 L 466 710 L 462 710 L 460 717"/>
  <line x1="462" y1="710" x2="466" y2="710"/>
  <path class="p5" d="M 589 723 L 593 723 L 591 717 L 587 717 L 589 723"/>
  <path class="p5" d="M 593 723 L 598 723 L 596 717 L 591 717 L 593 723"/>
  <path class="p5" d="M 587 717 L 591 717 L 589 710 L 585 710 L 587 717"/>
  <line x1="585" y1="710" x2="589" y2="710"/>
  <path class="p5" d="M 591 717 L 596 717 L 594 710 L 589 710 L 591 717"/>
  <line x1="589" y1="710" x2="594" y2="710"/>
  <path class="p5" d="M 598 723 L 602 720 L 599 714 L 596 717 L 598 723"/>
  <path class="p5" d="M 602 720 L 605 718 L 603 711 L 599 714 L 602 720"/>
  <path class="p5" d="M 596 717 L 599 714 L 597 707 L 594 710 L 596 717"/>
  <line x1="594" y1="710" x2="597" y2="707"/>
  <path class="p5" d="M 599 714 L 603 711 L 601 705 L 597 707 L 599 714"/>
  <line x1="597" y1="707" x2="601" y2="705"/>
  <path class="p5" d="M 708 643 L 712 641 L 706 636 L 703 639 L 708 643"/>
  <path class="p5" d="M 712 641 L 715 638 L 710 634 L 706 636 L 712 641"/>
  <path class="p5" d="M 703 639 L 706 636 L 701 632 L 697 635 L 703 639"/>
  <line x1="697" y1="635" x2="701" y2="632"/>
  <path class="p5" d="M 706 636 L 710 634 L 704 630 L 701 632 L 706 636"/>
  <line x1="701" y1="632" x2="704" y2="630"/>
  <path class="p5" d="M 715 638 L 717 634 L 711 630 L 710 634 L 715 638"/>
  <path class="p5" d="M 717 634 L 718 629 L 712 625 L 711 630 L 717 634"/>
  <path class="p5" d="M 710 634 L 711 630 L 705 626 L 704 630 L 710 634"/>
  <line x1="704" y1="630" x2="705" y2="626"/>
  <path class="p5" d="M 711 630 L 712 625 L 707 622 L 705 626 L 711 630"/>
  <line x1="705" y1="626" x2="707" y2="622"/>
  <path class="p5" d="M 757 509 L 759 504 L 752 504 L 750 508 L 757 509"/>
  <path class="p5" d="M 759 504 L 760 500 L 753 500 L 752 504 L 759 504"/>
  <path class="p5" d="M 750 508 L 752 504 L 745 504 L 744 508 L 750 508"/>
  <line x1="744" y1="508" x2="745" y2="504"/>
  <path class="p5" d="M 752 504 L 753 500 L 746 500 L 745 504 L 752 504"/>
  <line x1="745" y1="504" x2="746" y2="500"/>

</svg>