<svg width="1000" height="1000" xmlns="http://www.w3.org/2000/svg" version="1.1">


<!-- internal style sheet -->
<style type="text/css"><![CDATA[
 rect.background{fill:white}
 rect{fill:none; stroke:rgb(25,25,25); stroke-width:2}
 text{font-family:Helvetica; text-anchor:middle; fill:rgb(25,25,25)}
 line{stroke:rgb(25,25,25); stroke-width:4}
 path{fill:none; stroke:rgb(25,25,25); stroke-width:2}
 circle{fill:white; stroke:black; stroke-width:2}

 path.p0{fill:rgb(0,102,255); stroke:rgb(25,25,25); stroke-width:2}
 path.ps0{fill:rgb(0,77,191); stroke:rgb(20,20,20); stroke-width:2}
 rect.r0{fill:rgb(0,102,255); stroke:rgb(25,25,25); stroke-width:2}
 path.p1{fill:rgb(51,255,0); stroke:rgb(25,25,25); stroke-width:2}
 path.ps1{fill:rgb(38,191,0); stroke:rgb(20,20,20); stroke-width:2}
 rect.r1{fill:rgb(51,255,0); stroke:rgb(25,25,25); stroke-width:2}
 path.p2{fill:rgb(255,0,0); stroke:rgb(25,25,25); stroke-width:2}
 path.ps2{fill:rgb(191,0,0); stroke:rgb(20,20,20); stroke-width:2}
 rect.r2{fill:rgb(255,0,0); stroke:rgb(25,25,25); stroke-width:2}
]]></style>

 <rect class="background" width="1000" height="1000"/>
  <!-- cells -->
  <path class="p2" d="M 203 797 L 339 888 L 363 831 L 247 753 L 203 797"/>
  <line x1="203" y1="797" x2="339" y2="888"/>
  <path class="p2" d="M 339 888 L 500 920 L 500 858 L 363 831 L 339 888"/>
  <line x1="339" y1="888" x2="500" y2="920"/>
  <path class="p2" d="M 247 753 L 363 831 L 386 774 L 290 710 L 247 753"/>
  <path class="p2" d="M 363 831 L 500 858 L 500 797 L 386 774 L 363 831"/>
  <path class="p2" d="M 500 920 L 661 888 L 637 831 L 500 858 L 500 920"/>
  <line x1="500" y1="920" x2="661" y2="888"/>
  <path class="p2" d="M 661 888 L 797 797 L 753 753 L 637 831 L 661 888"/>
  <line x1="661" y1="888" x2="797" y2="797"/>
  <path class="p2" d="M 500 858 L 637 831 L 614 774 L 500 797 L 500 858"/>
  <path class="p2" d="M 637 831 L 753 753 L 710 710 L 614 774 L 637 831"/>
  <path class="p2" d="M 290 710 L 386 774 L 410 718 L 333 667 L 290 710"/>
  <path class="p2" d="M 386 774 L 500 797 L 500 735 L 410 718 L 386 774"/>
  <path class="p2" d="M 333 667 L 410 718 L 433 661 L 377 623 L 333 667"/>
  <path class="p2" d="M 410 718 L 500 735 L 500 674 L 433 661 L 410 718"/>
  <path class="p2" d="M 500 797 L 614 774 L 590 718 L 500 735 L 500 797"/>
  <path class="p2" d="M 614 774 L 710 710 L 667 667 L 590 718 L 614 774"/>
  <path class="p2" d="M 500 735 L 590 718 L 567 661 L 500 674 L 500 735"/>
  <path class="p2" d="M 590 718 L 667 667 L 623 623 L 567 661 L 590 718"/>
  <path class="p2" d="M 203 797 L 247 753 L 169 637 L 112 661 L 203 797"/>
  <line x1="203" y1="797" x2="112" y2="661"/>
  <path class="p2" d="M 247 753 L 290 710 L 226 614 L 169 637 L 247 753"/>
  <path class="p2" d="M 112 661 L 169 637 L 142 500 L 80 500 L 112 661"/>
  <line x1="112" y1="661" x2="80" y2="500"/>
  <path class="p2" d="M 169 637 L 226 614 L 203 500 L 142 500 L 169 637"/>
  <path class="p2" d="M 290 710 L 333 667 L 282 590 L 226 614 L 290 710"/>
  <path class="p2" d="M 333 667 L 377 623 L 339 567 L 282 590 L 333 667"/>
  <path class="p2" d="M 226 614 L 282 590 L 265 500 L 203 500 L 226 614"/>
  <path class="p2" d="M 282 590 L 339 567 L 326 500 L 265 500 L 282 590"/>
  <path class="p2" d="M 80 500 L 142 500 L 169 363 L 112 339 L 80 500"/>
  <line x1="80" y1="500" x2="112" y2="339"/>
  <path class="p2" d="M 142 500 L 203 500 L 226 386 L 169 363 L 142 500"/>
  <path class="p2" d="M 112 339 L 169 363 L 247 247 L 203 203 L 112 339"/>
  <line x1="112" y1="339" x2="203" y2="203"/>
  <path class="p2" d="M 169 363 L 226 386 L 290 290 L 247 247 L 169 363"/>
  <path class="p2" d="M 203 500 L 265 500 L 282 410 L 226 386 L 203 500"/>
  <path class="p2" d="M 265 500 L 326 500 L 339 433 L 282 410 L 265 500"/>
  <path class="p2" d="M 226 386 L 282 410 L 333 333 L 290 290 L 226 386"/>
  <path class="p2" d="M 282 410 L 339 433 L 377 377 L 333 333 L 282 410"/>
  <path class="p2" d="M 377 623 L 433 661 L 418 347 L 339 567 L 377 623"/>
  <path class="p2" d="M 433 661 L 500 674 L 671 534 L 418 347 L 433 661"/>
  <path class="p2" d="M 339 567 L 418 347 L 403 355 L 326 500 L 339 567"/>
  <path class="p2" d="M 418 347 L 671 534 L 567 339 L 403 355 L 418 347"/>
  <path class="p2" d="M 500 674 L 567 661 L 666 551 L 671 534 L 500 674"/>
  <path class="p2" d="M 567 661 L 623 623 L 661 567 L 666 551 L 567 661"/>
  <path class="p2" d="M 671 534 L 666 551 L 645 403 L 567 339 L 671 534"/>
  <path class="p2" d="M 666 551 L 661 567 L 674 500 L 645 403 L 666 551"/>
  <path class="p2" d="M 326 500 L 403 355 L 418 347 L 339 433 L 326 500"/>
  <path class="p2" d="M 403 355 L 567 339 L 534 329 L 418 347 L 403 355"/>
  <path class="p2" d="M 339 433 L 418 347 L 433 339 L 377 377 L 339 433"/>
  <path class="p2" d="M 418 347 L 534 329 L 500 326 L 433 339 L 418 347"/>
  <path class="p2" d="M 567 339 L 645 403 L 610 366 L 534 329 L 567 339"/>
  <path class="p2" d="M 645 403 L 674 500 L 661 433 L 610 366 L 645 403"/>
  <path class="p2" d="M 534 329 L 610 366 L 567 339 L 500 326 L 534 329"/>
  <path class="p2" d="M 610 366 L 661 433 L 623 377 L 567 339 L 610 366"/>
  <path class="p2" d="M 797 797 L 888 661 L 831 637 L 753 753 L 797 797"/>
  <line x1="797" y1="797" x2="888" y2="661"/>
  <path class="p2" d="M 888 661 L 920 500 L 858 500 L 831 637 L 888 661"/>
  <line x1="888" y1="661" x2="920" y2="500"/>
  <path class="p2" d="M 753 753 L 831 637 L 774 614 L 710 710 L 753 753"/>
  <path class="p2" d="M 831 637 L 858 500 L 797 500 L 774 614 L 831 637"/>
  <path class="p2" d="M 920 500 L 888 339 L 831 363 L 858 500 L 920 500"/>
  <line x1="920" y1="500" x2="888" y2="339"/>
  <path class="p2" d="M 888 339 L 797 203 L 753 247 L 831 363 L 888 339"/>
  <line x1="888" y1="339" x2="797" y2="203"/>
  <path class="p2" d="M 858 500 L 831 363 L 774 386 L 797 500 L 858 500"/>
  <path class="p2" d="M 831 363 L 753 247 L 710 290 L 774 386 L 831 363"/>
  <path class="p2" d="M 710 710 L 774 614 L 718 590 L 667 667 L 710 710"/>
  <path class="p2" d="M 774 614 L 797 500 L 735 500 L 718 590 L 774 614"/>
  <path class="p2" d="M 667 667 L 718 590 L 661 567 L 623 623 L 667 667"/>
  <path class="p2" d="M 718 590 L 735 500 L 674 500 L 661 567 L 718 590"/>
  <path class="p2" d="M 797 500 L 774 386 L 718 410 L 735 500 L 797 500"/>
  <path class="p2" d="M 774 386 L 710 290 L 667 333 L 718 410 L 774 386"/>
  <path class="p2" d="M 735 500 L 718 410 L 661 433 L 674 500 L 735 500"/>
  <path class="p2" d="M 718 410 L 667 333 L 623 377 L 661 433 L 718 410"/>
  <path class="p2" d="M 203 203 L 247 247 L 363 169 L 339 112 L 203 203"/>
  <line x1="203" y1="203" x2="339" y2="112"/>
  <path class="p2" d="M 247 247 L 290 290 L 386 226 L 363 169 L 247 247"/>
  <path class="p2" d="M 339 112 L 363 169 L 500 142 L 500 80 L 339 112"/>
  <line x1="339" y1="112" x2="500" y2="80"/>
  <path class="p2" d="M 363 169 L 386 226 L 500 203 L 500 142 L 363 169"/>
  <path class="p2" d="M 290 290 L 333 333 L 410 282 L 386 226 L 290 290"/>
  <path class="p2" d="M 333 333 L 377 377 L 433 339 L 410 282 L 333 333"/>
  <path class="p2" d="M 386 226 L 410 282 L 500 265 L 500 203 L 386 226"/>
  <path class="p2" d="M 410 282 L 433 339 L 500 326 L 500 265 L 410 282"/>
  <path class="p2" d="M 500 80 L 500 142 L 637 169 L 661 112 L 500 80"/>
  <line x1="500" y1="80" x2="661" y2="112"/>
  <path class="p2" d="M 500 142 L 500 203 L 614 226 L 637 169 L 500 142"/>
  <path class="p2" d="M 661 112 L 637 169 L 753 247 L 797 203 L 661 112"/>
  <line x1="661" y1="112" x2="797" y2="203"/>
  <path class="p2" d="M 637 169 L 614 226 L 710 290 L 753 247 L 637 169"/>
  <path class="p2" d="M 500 203 L 500 265 L 590 282 L 614 226 L 500 203"/>
  <path class="p2" d="M 500 265 L 500 326 L 567 339 L 590 282 L 500 265"/>
  <path class="p2" d="M 614 226 L 590 282 L 667 333 L 710 290 L 614 226"/>
  <path class="p2" d="M 590 282 L 567 339 L 623 377 L 667 333 L 590 282"/>

</svg>