<svg width="1000" height="1000" xmlns="http://www.w3.org/2000/svg" version="1.1">


<!-- internal style sheet -->
<style type="text/css"><![CDATA[
 rect.background{fill:white}
 rect{fill:none; stroke:rgb(25,25,25); stroke-width:2}
 text{font-family:Helvetica; text-anchor:middle; fill:rgb(25,25,25)}
 line{stroke:rgb(25,25,25); stroke-width:4}
 path{fill:none; stroke:rgb(25,25,25); stroke-width:2}
 circle{fill:white; stroke:black; stroke-width:2}

 path.p0{fill:rgb(0,102,255); stroke:rgb(25,25,25); stroke-width:2}
 path.ps0{fill:rgb(0,77,191); stroke:rgb(20,20,20); stroke-width:2}
 rect.r0{fill:rgb(0,102,255); stroke:rgb(25,25,25); stroke-width:2}
 path.p1{fill:rgb(0,255,255); stroke:rgb(25,25,25); stroke-width:2}
 path.ps1{fill:rgb(0,191,191); stroke:rgb(20,20,20); stroke-width:2}
 rect.r1{fill:rgb(0,255,255); stroke:rgb(25,25,25); stroke-width:2}
 path.p2{fill:rgb(0,255,102); stroke:rgb(25,25,25); stroke-width:2}
 path.ps2{fill:rgb(0,191,77); stroke:rgb(20,20,20); stroke-width:2}
 rect.r2{fill:rgb(0,255,102); stroke:rgb(25,25,25); stroke-width:2}
 path.p3{fill:rgb(51,255,0); stroke:rgb(25,25,25); stroke-width:2}
 path.ps3{fill:rgb(38,191,0); stroke:rgb(20,20,20); stroke-width:2}
 rect.r3{fill:rgb(51,255,0); stroke:rgb(25,25,25); stroke-width:2}
 path.p4{fill:rgb(204,255,0); stroke:rgb(25,25,25); stroke-width:2}
 path.ps4{fill:rgb(153,191,0); stroke:rgb(20,20,20); stroke-width:2}
 rect.r4{fill:rgb(204,255,0); stroke:rgb(25,25,25); stroke-width:2}
 path.p5{fill:rgb(255,153,0); stroke:rgb(25,25,25); stroke-width:2}
 path.ps5{fill:rgb(191,115,0); stroke:rgb(20,20,20); stroke-width:2}
 rect.r5{fill:rgb(255,153,0); stroke:rgb(25,25,25); stroke-width:2}
 path.p6{fill:rgb(255,0,0); stroke:rgb(25,25,25); stroke-width:2}
 path.ps6{fill:rgb(191,0,0); stroke:rgb(20,20,20); stroke-width:2}
 rect.r6{fill:rgb(255,0,0); stroke:rgb(25,25,25); stroke-width:2}
]]></style>

 <rect class="background" width="1000" height="1000"/>
  <!-- cells -->
  <path class="p2" d="M 80 920 L 185 920 L 185 815 L 80 815 L 80 920"/>
  <line x1="80" y1="920" x2="80" y2="815"/>
  <line x1="80" y1="920" x2="185" y2="920"/>
  <path class="p2" d="M 185 920 L 290 920 L 290 815 L 185 815 L 185 920"/>
  <line x1="185" y1="920" x2="290" y2="920"/>
  <path class="p2" d="M 80 815 L 185 815 L 185 710 L 80 710 L 80 815"/>
  <line x1="80" y1="815" x2="80" y2="710"/>
  <path class="p2" d="M 185 815 L 290 815 L 290 710 L 185 710 L 185 815"/>
  <path class="p2" d="M 290 920 L 395 920 L 395 815 L 290 815 L 290 920"/>
  <line x1="290" y1="920" x2="395" y2="920"/>
  <path class="p2" d="M 395 920 L 500 920 L 500 815 L 395 815 L 395 920"/>
  <line x1="395" y1="920" x2="500" y2="920"/>
  <path class="p2" d="M 290 815 L 395 815 L 395 710 L 290 710 L 290 815"/>
  <path class="p2" d="M 395 815 L 500 815 L 500 710 L 395 710 L 395 815"/>
  <path class="p2" d="M 80 710 L 185 710 L 185 605 L 80 605 L 80 710"/>
  <line x1="80" y1="710" x2="80" y2="605"/>
  <path class="p2" d="M 185 710 L 290 710 L 290 605 L 185 605 L 185 710"/>
  <path class="p2" d="M 80 605 L 185 605 L 185 500 L 80 500 L 80 605"/>
  <line x1="80" y1="605" x2="80" y2="500"/>
  <path class="p2" d="M 185 605 L 290 605 L 290 500 L 185 500 L 185 605"/>
  <path class="p2" d="M 500 920 L 605 920 L 605 815 L 500 815 L 500 920"/>
  <line x1="500" y1="920" x2="605" y2="920"/>
  <path class="p2" d="M 605 920 L 710 920 L 710 815 L 605 815 L 605 920"/>
  <line x1="605" y1="920" x2="710" y2="920"/>
  <path class="p2" d="M 500 815 L 605 815 L 605 710 L 500 710 L 500 815"/>
  <path class="p2" d="M 605 815 L 710 815 L 710 710 L 605 710 L 605 815"/>
  <path class="p2" d="M 710 920 L 815 920 L 815 815 L 710 815 L 710 920"/>
  <line x1="710" y1="920" x2="815" y2="920"/>
  <path class="p2" d="M 815 920 L 920 920 L 920 815 L 815 815 L 815 920"/>
  <line x1="920" y1="920" x2="920" y2="815"/>
  <line x1="815" y1="920" x2="920" y2="920"/>
  <path class="p2" d="M 710 815 L 815 815 L 815 710 L 710 710 L 710 815"/>
  <path class="p2" d="M 815 815 L 920 815 L 920 710 L 815 710 L 815 815"/>
  <line x1="920" y1="815" x2="920" y2="710"/>
  <path class="p2" d="M 710 710 L 815 710 L 815 605 L 710 605 L 710 710"/>
  <path class="p2" d="M 815 710 L 920 710 L 920 605 L 815 605 L 815 710"/>
  <line x1="920" y1="710" x2="920" y2="605"/>
  <path class="p2" d="M 710 605 L 815 605 L 815 500 L 710 500 L 710 605"/>
  <line x1="710" y1="500" x2="815" y2="500"/>
  <path class="p2" d="M 815 605 L 920 605 L 920 500 L 815 500 L 815 605"/>
  <line x1="920" y1="605" x2="920" y2="500"/>
  <line x1="815" y1="500" x2="920" y2="500"/>
  <path class="p2" d="M 80 500 L 185 500 L 185 395 L 80 395 L 80 500"/>
  <line x1="80" y1="500" x2="80" y2="395"/>
  <path class="p2" d="M 185 500 L 290 500 L 290 395 L 185 395 L 185 500"/>
  <path class="p2" d="M 80 395 L 185 395 L 185 290 L 80 290 L 80 395"/>
  <line x1="80" y1="395" x2="80" y2="290"/>
  <path class="p2" d="M 185 395 L 290 395 L 290 290 L 185 290 L 185 395"/>
  <path class="p2" d="M 80 290 L 185 290 L 185 185 L 80 185 L 80 290"/>
  <line x1="80" y1="290" x2="80" y2="185"/>
  <path class="p2" d="M 185 290 L 290 290 L 290 185 L 185 185 L 185 290"/>
  <path class="p2" d="M 80 185 L 185 185 L 185 80 L 80 80 L 80 185"/>
  <line x1="80" y1="185" x2="80" y2="80"/>
  <line x1="80" y1="80" x2="185" y2="80"/>
  <path class="p2" d="M 185 185 L 290 185 L 290 80 L 185 80 L 185 185"/>
  <line x1="185" y1="80" x2="290" y2="80"/>
  <path class="p2" d="M 290 290 L 395 290 L 395 185 L 290 185 L 290 290"/>
  <path class="p2" d="M 395 290 L 500 290 L 500 185 L 395 185 L 395 290"/>
  <line x1="500" y1="290" x2="500" y2="185"/>
  <path class="p2" d="M 290 185 L 395 185 L 395 80 L 290 80 L 290 185"/>
  <line x1="290" y1="80" x2="395" y2="80"/>
  <path class="p2" d="M 395 185 L 500 185 L 500 80 L 395 80 L 395 185"/>
  <line x1="500" y1="185" x2="500" y2="80"/>
  <line x1="395" y1="80" x2="500" y2="80"/>
  <path class="p3" d="M 395 710 L 448 710 L 448 658 L 395 658 L 395 710"/>
  <path class="p3" d="M 448 710 L 500 710 L 500 658 L 448 658 L 448 710"/>
  <path class="p3" d="M 290 605 L 343 605 L 343 553 L 290 553 L 290 605"/>
  <path class="p3" d="M 290 553 L 343 553 L 343 500 L 290 500 L 290 553"/>
  <path class="p3" d="M 500 710 L 553 710 L 553 658 L 500 658 L 500 710"/>
  <path class="p3" d="M 553 710 L 605 710 L 605 658 L 553 658 L 553 710"/>
  <path class="p3" d="M 658 605 L 710 605 L 710 553 L 658 553 L 658 605"/>
  <path class="p3" d="M 658 553 L 710 553 L 710 500 L 658 500 L 658 553"/>
  <line x1="658" y1="500" x2="710" y2="500"/>
  <path class="p3" d="M 290 500 L 343 500 L 343 448 L 290 448 L 290 500"/>
  <path class="p3" d="M 290 448 L 343 448 L 343 395 L 290 395 L 290 448"/>
  <path class="p3" d="M 395 343 L 448 343 L 448 290 L 395 290 L 395 343"/>
  <path class="p3" d="M 448 343 L 500 343 L 500 290 L 448 290 L 448 343"/>
  <line x1="500" y1="343" x2="500" y2="290"/>
  <path class="p3" d="M 290 710 L 343 710 L 343 658 L 290 658 L 290 710"/>
  <path class="p3" d="M 343 710 L 395 710 L 395 658 L 343 658 L 343 710"/>
  <path class="p3" d="M 290 658 L 343 658 L 343 605 L 290 605 L 290 658"/>
  <path class="p3" d="M 605 710 L 658 710 L 658 658 L 605 658 L 605 710"/>
  <path class="p3" d="M 658 710 L 710 710 L 710 658 L 658 658 L 658 710"/>
  <path class="p3" d="M 658 658 L 710 658 L 710 605 L 658 605 L 658 658"/>
  <path class="p3" d="M 290 395 L 343 395 L 343 343 L 290 343 L 290 395"/>
  <path class="p3" d="M 290 343 L 343 343 L 343 290 L 290 290 L 290 343"/>
  <path class="p3" d="M 343 343 L 395 343 L 395 290 L 343 290 L 343 343"/>
  <path class="p4" d="M 395 658 L 421 658 L 421 631 L 395 631 L 395 658"/>
  <path class="p4" d="M 421 658 L 448 658 L 448 631 L 421 631 L 421 658"/>
  <path class="p4" d="M 448 658 L 474 658 L 474 631 L 448 631 L 448 658"/>
  <path class="p4" d="M 474 658 L 500 658 L 500 631 L 474 631 L 474 658"/>
  <path class="p4" d="M 343 605 L 369 605 L 369 579 L 343 579 L 343 605"/>
  <path class="p4" d="M 343 579 L 369 579 L 369 553 L 343 553 L 343 579"/>
  <path class="p4" d="M 343 553 L 369 553 L 369 526 L 343 526 L 343 553"/>
  <path class="p4" d="M 343 526 L 369 526 L 369 500 L 343 500 L 343 526"/>
  <path class="p4" d="M 500 658 L 526 658 L 526 631 L 500 631 L 500 658"/>
  <path class="p4" d="M 526 658 L 553 658 L 553 631 L 526 631 L 526 658"/>
  <path class="p4" d="M 553 658 L 579 658 L 579 631 L 553 631 L 553 658"/>
  <path class="p4" d="M 579 658 L 605 658 L 605 631 L 579 631 L 579 658"/>
  <path class="p4" d="M 631 605 L 658 605 L 658 579 L 631 579 L 631 605"/>
  <path class="p4" d="M 631 579 L 658 579 L 658 553 L 631 553 L 631 579"/>
  <path class="p4" d="M 631 553 L 658 553 L 658 526 L 631 526 L 631 553"/>
  <path class="p4" d="M 631 526 L 658 526 L 658 500 L 631 500 L 631 526"/>
  <line x1="631" y1="500" x2="658" y2="500"/>
  <path class="p4" d="M 343 500 L 369 500 L 369 474 L 343 474 L 343 500"/>
  <path class="p4" d="M 343 474 L 369 474 L 369 448 L 343 448 L 343 474"/>
  <path class="p4" d="M 343 448 L 369 448 L 369 421 L 343 421 L 343 448"/>
  <path class="p4" d="M 343 421 L 369 421 L 369 395 L 343 395 L 343 421"/>
  <path class="p4" d="M 395 369 L 421 369 L 421 343 L 395 343 L 395 369"/>
  <path class="p4" d="M 421 369 L 448 369 L 448 343 L 421 343 L 421 369"/>
  <path class="p4" d="M 448 369 L 474 369 L 474 343 L 448 343 L 448 369"/>
  <path class="p4" d="M 474 369 L 500 369 L 500 343 L 474 343 L 474 369"/>
  <line x1="500" y1="369" x2="500" y2="343"/>
  <path class="p4" d="M 343 658 L 369 658 L 369 631 L 343 631 L 343 658"/>
  <path class="p4" d="M 369 658 L 395 658 L 395 631 L 369 631 L 369 658"/>
  <path class="p4" d="M 343 631 L 369 631 L 369 605 L 343 605 L 343 631"/>
  <path class="p4" d="M 369 631 L 395 631 L 395 605 L 369 605 L 369 631"/>
  <path class="p4" d="M 605 658 L 631 658 L 631 631 L 605 631 L 605 658"/>
  <path class="p4" d="M 631 658 L 658 658 L 658 631 L 631 631 L 631 658"/>
  <path class="p4" d="M 605 631 L 631 631 L 631 605 L 605 605 L 605 631"/>
  <path class="p4" d="M 631 631 L 658 631 L 658 605 L 631 605 L 631 631"/>
  <path class="p4" d="M 343 395 L 369 395 L 369 369 L 343 369 L 343 395"/>
  <path class="p4" d="M 369 395 L 395 395 L 395 369 L 369 369 L 369 395"/>
  <path class="p4" d="M 343 369 L 369 369 L 369 343 L 343 343 L 343 369"/>
  <path class="p4" d="M 369 369 L 395 369 L 395 343 L 369 343 L 369 369"/>
  <path class="p5" d="M 395 631 L 408 631 L 408 618 L 395 618 L 395 631"/>
  <path class="p5" d="M 408 631 L 421 631 L 421 618 L 408 618 L 408 631"/>
  <path class="p5" d="M 395 618 L 408 618 L 408 605 L 395 605 L 395 618"/>
  <path class="p5" d="M 408 618 L 421 618 L 421 605 L 408 605 L 408 618"/>
  <path class="p5" d="M 421 631 L 434 631 L 434 618 L 421 618 L 421 631"/>
  <path class="p5" d="M 434 631 L 448 631 L 448 618 L 434 618 L 434 631"/>
  <path class="p5" d="M 421 618 L 434 618 L 434 605 L 421 605 L 421 618"/>
  <path class="p5" d="M 434 618 L 448 618 L 448 605 L 434 605 L 434 618"/>
  <path class="p5" d="M 448 631 L 461 631 L 461 618 L 448 618 L 448 631"/>
  <path class="p5" d="M 461 631 L 474 631 L 474 618 L 461 618 L 461 631"/>
  <path class="p5" d="M 448 618 L 461 618 L 461 605 L 448 605 L 448 618"/>
  <path class="p5" d="M 461 618 L 474 618 L 474 605 L 461 605 L 461 618"/>
  <path class="p5" d="M 474 631 L 487 631 L 487 618 L 474 618 L 474 631"/>
  <path class="p5" d="M 487 631 L 500 631 L 500 618 L 487 618 L 487 631"/>
  <path class="p5" d="M 474 618 L 487 618 L 487 605 L 474 605 L 474 618"/>
  <path class="p5" d="M 487 618 L 500 618 L 500 605 L 487 605 L 487 618"/>
  <path class="p5" d="M 369 605 L 382 605 L 382 592 L 369 592 L 369 605"/>
  <path class="p5" d="M 382 605 L 395 605 L 395 592 L 382 592 L 382 605"/>
  <path class="p5" d="M 369 592 L 382 592 L 382 579 L 369 579 L 369 592"/>
  <path class="p5" d="M 382 592 L 395 592 L 395 579 L 382 579 L 382 592"/>
  <path class="p5" d="M 369 579 L 382 579 L 382 566 L 369 566 L 369 579"/>
  <path class="p5" d="M 382 579 L 395 579 L 395 566 L 382 566 L 382 579"/>
  <path class="p5" d="M 369 566 L 382 566 L 382 553 L 369 553 L 369 566"/>
  <path class="p5" d="M 382 566 L 395 566 L 395 553 L 382 553 L 382 566"/>
  <path class="p5" d="M 369 553 L 382 553 L 382 539 L 369 539 L 369 553"/>
  <path class="p5" d="M 382 553 L 395 553 L 395 539 L 382 539 L 382 553"/>
  <path class="p5" d="M 369 539 L 382 539 L 382 526 L 369 526 L 369 539"/>
  <path class="p5" d="M 382 539 L 395 539 L 395 526 L 382 526 L 382 539"/>
  <path class="p5" d="M 369 526 L 382 526 L 382 513 L 369 513 L 369 526"/>
  <path class="p5" d="M 382 526 L 395 526 L 395 513 L 382 513 L 382 526"/>
  <path class="p5" d="M 369 513 L 382 513 L 382 500 L 369 500 L 369 513"/>
  <path class="p5" d="M 382 513 L 395 513 L 395 500 L 382 500 L 382 513"/>
  <path class="p5" d="M 500 631 L 513 631 L 513 618 L 500 618 L 500 631"/>
  <path class="p5" d="M 513 631 L 526 631 L 526 618 L 513 618 L 513 631"/>
  <path class="p5" d="M 500 618 L 513 618 L 513 605 L 500 605 L 500 618"/>
  <path class="p5" d="M 513 618 L 526 618 L 526 605 L 513 605 L 513 618"/>
  <path class="p5" d="M 526 631 L 539 631 L 539 618 L 526 618 L 526 631"/>
  <path class="p5" d="M 539 631 L 553 631 L 553 618 L 539 618 L 539 631"/>
  <path class="p5" d="M 526 618 L 539 618 L 539 605 L 526 605 L 526 618"/>
  <path class="p5" d="M 539 618 L 553 618 L 553 605 L 539 605 L 539 618"/>
  <path class="p5" d="M 553 631 L 566 631 L 566 618 L 553 618 L 553 631"/>
  <path class="p5" d="M 566 631 L 579 631 L 579 618 L 566 618 L 566 631"/>
  <path class="p5" d="M 553 618 L 566 618 L 566 605 L 553 605 L 553 618"/>
  <path class="p5" d="M 566 618 L 579 618 L 579 605 L 566 605 L 566 618"/>
  <path class="p5" d="M 579 631 L 592 631 L 592 618 L 579 618 L 579 631"/>
  <path class="p5" d="M 592 631 L 605 631 L 605 618 L 592 618 L 592 631"/>
  <path class="p5" d="M 579 618 L 592 618 L 592 605 L 579 605 L 579 618"/>
  <path class="p5" d="M 592 618 L 605 618 L 605 605 L 592 605 L 592 618"/>
  <path class="p5" d="M 605 605 L 618 605 L 618 592 L 605 592 L 605 605"/>
  <path class="p5" d="M 618 605 L 631 605 L 631 592 L 618 592 L 618 605"/>
  <path class="p5" d="M 605 592 L 618 592 L 618 579 L 605 579 L 605 592"/>
  <path class="p5" d="M 618 592 L 631 592 L 631 579 L 618 579 L 618 592"/>
  <path class="p5" d="M 605 579 L 618 579 L 618 566 L 605 566 L 605 579"/>
  <path class="p5" d="M 618 579 L 631 579 L 631 566 L 618 566 L 618 579"/>
  <path class="p5" d="M 605 566 L 618 566 L 618 553 L 605 553 L 605 566"/>
  <path class="p5" d="M 618 566 L 631 566 L 631 553 L 618 553 L 618 566"/>
  <path class="p5" d="M 605 553 L 618 553 L 618 539 L 605 539 L 605 553"/>
  <path class="p5" d="M 618 553 L 631 553 L 631 539 L 618 539 L 618 553"/>
  <path class="p5" d="M 605 539 L 618 539 L 618 526 L 605 526 L 605 539"/>
  <path class="p5" d="M 618 539 L 631 539 L 631 526 L 618 526 L 618 539"/>
  <path class="p5" d="M 605 526 L 618 526 L 618 513 L 605 513 L 605 526"/>
  <path class="p5" d="M 618 526 L 631 526 L 631 513 L 618 513 L 618 526"/>
  <path class="p5" d="M 605 513 L 618 513 L 618 500 L 605 500 L 605 513"/>
  <line x1="605" y1="500" x2="618" y2="500"/>
  <path class="p5" d="M 618 513 L 631 513 L 631 500 L 618 500 L 618 513"/>
  <line x1="618" y1="500" x2="631" y2="500"/>
  <path class="p5" d="M 369 500 L 382 500 L 382 487 L 369 487 L 369 500"/>
  <path class="p5" d="M 382 500 L 395 500 L 395 487 L 382 487 L 382 500"/>
  <path class="p5" d="M 369 487 L 382 487 L 382 474 L 369 474 L 369 487"/>
  <path class="p5" d="M 382 487 L 395 487 L 395 474 L 382 474 L 382 487"/>
  <path class="p5" d="M 369 474 L 382 474 L 382 461 L 369 461 L 369 474"/>
  <path class="p5" d="M 382 474 L 395 474 L 395 461 L 382 461 L 382 474"/>
  <path class="p5" d="M 369 461 L 382 461 L 382 448 L 369 448 L 369 461"/>
  <path class="p5" d="M 382 461 L 395 461 L 395 448 L 382 448 L 382 461"/>
  <path class="p5" d="M 369 448 L 382 448 L 382 434 L 369 434 L 369 448"/>
  <path class="p5" d="M 382 448 L 395 448 L 395 434 L 382 434 L 382 448"/>
  <path class="p5" d="M 369 434 L 382 434 L 382 421 L 369 421 L 369 434"/>
  <path class="p5" d="M 382 434 L 395 434 L 395 421 L 382 421 L 382 434"/>
  <path class="p5" d="M 369 421 L 382 421 L 382 408 L 369 408 L 369 421"/>
  <path class="p5" d="M 382 421 L 395 421 L 395 408 L 382 408 L 382 421"/>
  <path class="p5" d="M 369 408 L 382 408 L 382 395 L 369 395 L 369 408"/>
  <path class="p5" d="M 382 408 L 395 408 L 395 395 L 382 395 L 382 408"/>
  <path class="p5" d="M 395 395 L 408 395 L 408 382 L 395 382 L 395 395"/>
  <path class="p5" d="M 408 395 L 421 395 L 421 382 L 408 382 L 408 395"/>
  <path class="p5" d="M 395 382 L 408 382 L 408 369 L 395 369 L 395 382"/>
  <path class="p5" d="M 408 382 L 421 382 L 421 369 L 408 369 L 408 382"/>
  <path class="p5" d="M 421 395 L 434 395 L 434 382 L 421 382 L 421 395"/>
  <path class="p5" d="M 434 395 L 448 395 L 448 382 L 434 382 L 434 395"/>
  <path class="p5" d="M 421 382 L 434 382 L 434 369 L 421 369 L 421 382"/>
  <path class="p5" d="M 434 382 L 448 382 L 448 369 L 434 369 L 434 382"/>
  <path class="p5" d="M 448 395 L 461 395 L 461 382 L 448 382 L 448 395"/>
  <path class="p5" d="M 461 395 L 474 395 L 474 382 L 461 382 L 461 395"/>
  <path class="p5" d="M 448 382 L 461 382 L 461 369 L 448 369 L 448 382"/>
  <path class="p5" d="M 461 382 L 474 382 L 474 369 L 461 369 L 461 382"/>
  <path class="p5" d="M 474 395 L 487 395 L 487 382 L 474 382 L 474 395"/>
  <path class="p5" d="M 487 395 L 500 395 L 500 382 L 487 382 L 487 395"/>
  <line x1="500" y1="395" x2="500" y2="382"/>
  <path class="p5" d="M 474 382 L 487 382 L 487 369 L 474 369 L 474 382"/>
  <path class="p5" d="M 487 382 L 500 382 L 500 369 L 487 369 L 487 382"/>
  <line x1="500" y1="382" x2="500" y2="369"/>
  <path class="p6" d="M 395 605 L 402 605 L 402 598 L 395 598 L 395 605"/>
  <path class="p6" d="M 402 605 L 408 605 L 408 598 L 402 598 L 402 605"/>
  <path class="p6" d="M 395 598 L 402 598 L 402 592 L 395 592 L 395 598"/>
  <path class="p6" d="M 402 598 L 408 598 L 408 592 L 402 592 L 402 598"/>
  <path class="p6" d="M 408 605 L 415 605 L 415 598 L 408 598 L 408 605"/>
  <path class="p6" d="M 415 605 L 421 605 L 421 598 L 415 598 L 415 605"/>
  <path class="p6" d="M 408 598 L 415 598 L 415 592 L 408 592 L 408 598"/>
  <path class="p6" d="M 415 598 L 421 598 L 421 592 L 415 592 L 415 598"/>
  <path class="p6" d="M 395 592 L 402 592 L 402 585 L 395 585 L 395 592"/>
  <path class="p6" d="M 402 592 L 408 592 L 408 585 L 402 585 L 402 592"/>
  <path class="p6" d="M 395 585 L 402 585 L 402 579 L 395 579 L 395 585"/>
  <path class="p6" d="M 402 585 L 408 585 L 408 579 L 402 579 L 402 585"/>
  <path class="p6" d="M 408 592 L 415 592 L 415 585 L 408 585 L 408 592"/>
  <path class="p6" d="M 415 592 L 421 592 L 421 585 L 415 585 L 415 592"/>
  <path class="p6" d="M 408 585 L 415 585 L 415 579 L 408 579 L 408 585"/>
  <path class="p6" d="M 415 585 L 421 585 L 421 579 L 415 579 L 415 585"/>
  <path class="p6" d="M 421 605 L 428 605 L 428 598 L 421 598 L 421 605"/>
  <path class="p6" d="M 428 605 L 434 605 L 434 598 L 428 598 L 428 605"/>
  <path class="p6" d="M 421 598 L 428 598 L 428 592 L 421 592 L 421 598"/>
  <path class="p6" d="M 428 598 L 434 598 L 434 592 L 428 592 L 428 598"/>
  <path class="p6" d="M 434 605 L 441 605 L 441 598 L 434 598 L 434 605"/>
  <path class="p6" d="M 441 605 L 448 605 L 448 598 L 441 598 L 441 605"/>
  <path class="p6" d="M 434 598 L 441 598 L 441 592 L 434 592 L 434 598"/>
  <path class="p6" d="M 441 598 L 448 598 L 448 592 L 441 592 L 441 598"/>
  <path class="p6" d="M 421 592 L 428 592 L 428 585 L 421 585 L 421 592"/>
  <path class="p6" d="M 428 592 L 434 592 L 434 585 L 428 585 L 428 592"/>
  <path class="p6" d="M 421 585 L 428 585 L 428 579 L 421 579 L 421 585"/>
  <path class="p6" d="M 428 585 L 434 585 L 434 579 L 428 579 L 428 585"/>
  <path class="p6" d="M 434 592 L 441 592 L 441 585 L 434 585 L 434 592"/>
  <path class="p6" d="M 441 592 L 448 592 L 448 585 L 441 585 L 441 592"/>
  <path class="p6" d="M 434 585 L 441 585 L 441 579 L 434 579 L 434 585"/>
  <path class="p6" d="M 441 585 L 448 585 L 448 579 L 441 579 L 441 585"/>
  <path class="p6" d="M 395 579 L 402 579 L 402 572 L 395 572 L 395 579"/>
  <path class="p6" d="M 402 579 L 408 579 L 408 572 L 402 572 L 402 579"/>
  <path class="p6" d="M 395 572 L 402 572 L 402 566 L 395 566 L 395 572"/>
  <path class="p6" d="M 402 572 L 408 572 L 408 566 L 402 566 L 402 572"/>
  <path class="p6" d="M 408 579 L 415 579 L 415 572 L 408 572 L 408 579"/>
  <path class="p6" d="M 415 579 L 421 579 L 421 572 L 415 572 L 415 579"/>
  <path class="p6" d="M 408 572 L 415 572 L 415 566 L 408 566 L 408 572"/>
  <path class="p6" d="M 415 572 L 421 572 L 421 566 L 415 566 L 415 572"/>
  <path class="p6" d="M 395 566 L 402 566 L 402 559 L 395 559 L 395 566"/>
  <path class="p6" d="M 402 566 L 408 566 L 408 559 L 402 559 L 402 566"/>
  <path class="p6" d="M 395 559 L 402 559 L 402 553 L 395 553 L 395 559"/>
  <path class="p6" d="M 402 559 L 408 559 L 408 553 L 402 553 L 402 559"/>
  <path class="p6" d="M 408 566 L 415 566 L 415 559 L 408 559 L 408 566"/>
  <path class="p6" d="M 415 566 L 421 566 L 421 559 L 415 559 L 415 566"/>
  <path class="p6" d="M 408 559 L 415 559 L 415 553 L 408 553 L 408 559"/>
  <path class="p6" d="M 415 559 L 421 559 L 421 553 L 415 553 L 415 559"/>
  <path class="p6" d="M 421 579 L 428 579 L 428 572 L 421 572 L 421 579"/>
  <path class="p6" d="M 428 579 L 434 579 L 434 572 L 428 572 L 428 579"/>
  <path class="p6" d="M 421 572 L 428 572 L 428 566 L 421 566 L 421 572"/>
  <path class="p6" d="M 428 572 L 434 572 L 434 566 L 428 566 L 428 572"/>
  <path class="p6" d="M 434 579 L 441 579 L 441 572 L 434 572 L 434 579"/>
  <path class="p6" d="M 441 579 L 448 579 L 448 572 L 441 572 L 441 579"/>
  <path class="p6" d="M 434 572 L 441 572 L 441 566 L 434 566 L 434 572"/>
  <path class="p6" d="M 441 572 L 448 572 L 448 566 L 441 566 L 441 572"/>
  <path class="p6" d="M 421 566 L 428 566 L 428 559 L 421 559 L 421 566"/>
  <path class="p6" d="M 428 566 L 434 566 L 434 559 L 428 559 L 428 566"/>
  <path class="p6" d="M 421 559 L 428 559 L 428 553 L 421 553 L 421 559"/>
  <path class="p6" d="M 428 559 L 434 559 L 434 553 L 428 553 L 428 559"/>
  <path class="p6" d="M 434 566 L 441 566 L 441 559 L 434 559 L 434 566"/>
  <path class="p6" d="M 441 566 L 448 566 L 448 559 L 441 559 L 441 566"/>
  <path class="p6" d="M 434 559 L 441 559 L 441 553 L 434 553 L 434 559"/>
  <path class="p6" d="M 441 559 L 448 559 L 448 553 L 441 553 L 441 559"/>
  <path class="p6" d="M 448 605 L 454 605 L 454 598 L 448 598 L 448 605"/>
  <path class="p6" d="M 454 605 L 461 605 L 461 598 L 454 598 L 454 605"/>
  <path class="p6" d="M 448 598 L 454 598 L 454 592 L 448 592 L 448 598"/>
  <path class="p6" d="M 454 598 L 461 598 L 461 592 L 454 592 L 454 598"/>
  <path class="p6" d="M 461 605 L 467 605 L 467 598 L 461 598 L 461 605"/>
  <path class="p6" d="M 467 605 L 474 605 L 474 598 L 467 598 L 467 605"/>
  <path class="p6" d="M 461 598 L 467 598 L 467 592 L 461 592 L 461 598"/>
  <path class="p6" d="M 467 598 L 474 598 L 474 592 L 467 592 L 467 598"/>
  <path class="p6" d="M 448 592 L 454 592 L 454 585 L 448 585 L 448 592"/>
  <path class="p6" d="M 454 592 L 461 592 L 461 585 L 454 585 L 454 592"/>
  <path class="p6" d="M 448 585 L 454 585 L 454 579 L 448 579 L 448 585"/>
  <path class="p6" d="M 454 585 L 461 585 L 461 579 L 454 579 L 454 585"/>
  <path class="p6" d="M 461 592 L 467 592 L 467 585 L 461 585 L 461 592"/>
  <path class="p6" d="M 467 592 L 474 592 L 474 585 L 467 585 L 467 592"/>
  <path class="p6" d="M 461 585 L 467 585 L 467 579 L 461 579 L 461 585"/>
  <path class="p6" d="M 467 585 L 474 585 L 474 579 L 467 579 L 467 585"/>
  <path class="p6" d="M 474 605 L 480 605 L 480 598 L 474 598 L 474 605"/>
  <path class="p6" d="M 480 605 L 487 605 L 487 598 L 480 598 L 480 605"/>
  <path class="p6" d="M 474 598 L 480 598 L 480 592 L 474 592 L 474 598"/>
  <path class="p6" d="M 480 598 L 487 598 L 487 592 L 480 592 L 480 598"/>
  <path class="p6" d="M 487 605 L 493 605 L 493 598 L 487 598 L 487 605"/>
  <path class="p6" d="M 493 605 L 500 605 L 500 598 L 493 598 L 493 605"/>
  <path class="p6" d="M 487 598 L 493 598 L 493 592 L 487 592 L 487 598"/>
  <path class="p6" d="M 493 598 L 500 598 L 500 592 L 493 592 L 493 598"/>
  <path class="p6" d="M 474 592 L 480 592 L 480 585 L 474 585 L 474 592"/>
  <path class="p6" d="M 480 592 L 487 592 L 487 585 L 480 585 L 480 592"/>
  <path class="p6" d="M 474 585 L 480 585 L 480 579 L 474 579 L 474 585"/>
  <path class="p6" d="M 480 585 L 487 585 L 487 579 L 480 579 L 480 585"/>
  <path class="p6" d="M 487 592 L 493 592 L 493 585 L 487 585 L 487 592"/>
  <path class="p6" d="M 493 592 L 500 592 L 500 585 L 493 585 L 493 592"/>
  <path class="p6" d="M 487 585 L 493 585 L 493 579 L 487 579 L 487 585"/>
  <path class="p6" d="M 493 585 L 500 585 L 500 579 L 493 579 L 493 585"/>
  <path class="p6" d="M 448 579 L 454 579 L 454 572 L 448 572 L 448 579"/>
  <path class="p6" d="M 454 579 L 461 579 L 461 572 L 454 572 L 454 579"/>
  <path class="p6" d="M 448 572 L 454 572 L 454 566 L 448 566 L 448 572"/>
  <path class="p6" d="M 454 572 L 461 572 L 461 566 L 454 566 L 454 572"/>
  <path class="p6" d="M 461 579 L 467 579 L 467 572 L 461 572 L 461 579"/>
  <path class="p6" d="M 467 579 L 474 579 L 474 572 L 467 572 L 467 579"/>
  <path class="p6" d="M 461 572 L 467 572 L 467 566 L 461 566 L 461 572"/>
  <path class="p6" d="M 467 572 L 474 572 L 474 566 L 467 566 L 467 572"/>
  <path class="p6" d="M 448 566 L 454 566 L 454 559 L 448 559 L 448 566"/>
  <path class="p6" d="M 454 566 L 461 566 L 461 559 L 454 559 L 454 566"/>
  <path class="p6" d="M 448 559 L 454 559 L 454 553 L 448 553 L 448 559"/>
  <path class="p6" d="M 454 559 L 461 559 L 461 553 L 454 553 L 454 559"/>
  <path class="p6" d="M 461 566 L 467 566 L 467 559 L 461 559 L 461 566"/>
  <path class="p6" d="M 467 566 L 474 566 L 474 559 L 467 559 L 467 566"/>
  <path class="p6" d="M 461 559 L 467 559 L 467 553 L 461 553 L 461 559"/>
  <path class="p6" d="M 467 559 L 474 559 L 474 553 L 467 553 L 467 559"/>
  <path class="p6" d="M 474 579 L 480 579 L 480 572 L 474 572 L 474 579"/>
  <path class="p6" d="M 480 579 L 487 579 L 487 572 L 480 572 L 480 579"/>
  <path class="p6" d="M 474 572 L 480 572 L 480 566 L 474 566 L 474 572"/>
  <path class="p6" d="M 480 572 L 487 572 L 487 566 L 480 566 L 480 572"/>
  <path class="p6" d="M 487 579 L 493 579 L 493 572 L 487 572 L 487 579"/>
  <path class="p6" d="M 493 579 L 500 579 L 500 572 L 493 572 L 493 579"/>
  <path class="p6" d="M 487 572 L 493 572 L 493 566 L 487 566 L 487 572"/>
  <path class="p6" d="M 493 572 L 500 572 L 500 566 L 493 566 L 493 572"/>
  <path class="p6" d="M 474 566 L 480 566 L 480 559 L 474 559 L 474 566"/>
  <path class="p6" d="M 480 566 L 487 566 L 487 559 L 480 559 L 480 566"/>
  <path class="p6" d="M 474 559 L 480 559 L 480 553 L 474 553 L 474 559"/>
  <path class="p6" d="M 480 559 L 487 559 L 487 553 L 480 553 L 480 559"/>
  <path class="p6" d="M 487 566 L 493 566 L 493 559 L 487 559 L 487 566"/>
  <path class="p6" d="M 493 566 L 500 566 L 500 559 L 493 559 L 493 566"/>
  <path class="p6" d="M 487 559 L 493 559 L 493 553 L 487 553 L 487 559"/>
  <path class="p6" d="M 493 559 L 500 559 L 500 553 L 493 553 L 493 559"/>
  <path class="p6" d="M 395 553 L 402 553 L 402 546 L 395 546 L 395 553"/>
  <path class="p6" d="M 402 553 L 408 553 L 408 546 L 402 546 L 402 553"/>
  <path class="p6" d="M 395 546 L 402 546 L 402 539 L 395 539 L 395 546"/>
  <path class="p6" d="M 402 546 L 408 546 L 408 539 L 402 539 L 402 546"/>
  <path class="p6" d="M 408 553 L 415 553 L 415 546 L 408 546 L 408 553"/>
  <path class="p6" d="M 415 553 L 421 553 L 421 546 L 415 546 L 415 553"/>
  <path class="p6" d="M 408 546 L 415 546 L 415 539 L 408 539 L 408 546"/>
  <path class="p6" d="M 415 546 L 421 546 L 421 539 L 415 539 L 415 546"/>
  <path class="p6" d="M 395 539 L 402 539 L 402 533 L 395 533 L 395 539"/>
  <path class="p6" d="M 402 539 L 408 539 L 408 533 L 402 533 L 402 539"/>
  <path class="p6" d="M 395 533 L 402 533 L 402 526 L 395 526 L 395 533"/>
  <path class="p6" d="M 402 533 L 408 533 L 408 526 L 402 526 L 402 533"/>
  <path class="p6" d="M 408 539 L 415 539 L 415 533 L 408 533 L 408 539"/>
  <path class="p6" d="M 415 539 L 421 539 L 421 533 L 415 533 L 415 539"/>
  <path class="p6" d="M 408 533 L 415 533 L 415 526 L 408 526 L 408 533"/>
  <path class="p6" d="M 415 533 L 421 533 L 421 526 L 415 526 L 415 533"/>
  <path class="p6" d="M 421 553 L 428 553 L 428 546 L 421 546 L 421 553"/>
  <path class="p6" d="M 428 553 L 434 553 L 434 546 L 428 546 L 428 553"/>
  <path class="p6" d="M 421 546 L 428 546 L 428 539 L 421 539 L 421 546"/>
  <path class="p6" d="M 428 546 L 434 546 L 434 539 L 428 539 L 428 546"/>
  <path class="p6" d="M 434 553 L 441 553 L 441 546 L 434 546 L 434 553"/>
  <path class="p6" d="M 441 553 L 448 553 L 448 546 L 441 546 L 441 553"/>
  <path class="p6" d="M 434 546 L 441 546 L 441 539 L 434 539 L 434 546"/>
  <path class="p6" d="M 441 546 L 448 546 L 448 539 L 441 539 L 441 546"/>
  <path class="p6" d="M 421 539 L 428 539 L 428 533 L 421 533 L 421 539"/>
  <path class="p6" d="M 428 539 L 434 539 L 434 533 L 428 533 L 428 539"/>
  <path class="p6" d="M 421 533 L 428 533 L 428 526 L 421 526 L 421 533"/>
  <path class="p6" d="M 428 533 L 434 533 L 434 526 L 428 526 L 428 533"/>
  <path class="p6" d="M 434 539 L 441 539 L 441 533 L 434 533 L 434 539"/>
  <path class="p6" d="M 441 539 L 448 539 L 448 533 L 441 533 L 441 539"/>
  <path class="p6" d="M 434 533 L 441 533 L 441 526 L 434 526 L 434 533"/>
  <path class="p6" d="M 441 533 L 448 533 L 448 526 L 441 526 L 441 533"/>
  <path class="p6" d="M 395 526 L 402 526 L 402 520 L 395 520 L 395 526"/>
  <path class="p6" d="M 402 526 L 408 526 L 408 520 L 402 520 L 402 526"/>
  <path class="p6" d="M 395 520 L 402 520 L 402 513 L 395 513 L 395 520"/>
  <path class="p6" d="M 402 520 L 408 520 L 408 513 L 402 513 L 402 520"/>
  <path class="p6" d="M 408 526 L 415 526 L 415 520 L 408 520 L 408 526"/>
  <path class="p6" d="M 415 526 L 421 526 L 421 520 L 415 520 L 415 526"/>
  <path class="p6" d="M 408 520 L 415 520 L 415 513 L 408 513 L 408 520"/>
  <path class="p6" d="M 415 520 L 421 520 L 421 513 L 415 513 L 415 520"/>
  <path class="p6" d="M 395 513 L 402 513 L 402 507 L 395 507 L 395 513"/>
  <path class="p6" d="M 402 513 L 408 513 L 408 507 L 402 507 L 402 513"/>
  <path class="p6" d="M 395 507 L 402 507 L 402 500 L 395 500 L 395 507"/>
  <path class="p6" d="M 402 507 L 408 507 L 408 500 L 402 500 L 402 507"/>
  <path class="p6" d="M 408 513 L 415 513 L 415 507 L 408 507 L 408 513"/>
  <path class="p6" d="M 415 513 L 421 513 L 421 507 L 415 507 L 415 513"/>
  <path class="p6" d="M 408 507 L 415 507 L 415 500 L 408 500 L 408 507"/>
  <path class="p6" d="M 415 507 L 421 507 L 421 500 L 415 500 L 415 507"/>
  <path class="p6" d="M 421 526 L 428 526 L 428 520 L 421 520 L 421 526"/>
  <path class="p6" d="M 428 526 L 434 526 L 434 520 L 428 520 L 428 526"/>
  <path class="p6" d="M 421 520 L 428 520 L 428 513 L 421 513 L 421 520"/>
  <path class="p6" d="M 428 520 L 434 520 L 434 513 L 428 513 L 428 520"/>
  <path class="p6" d="M 434 526 L 441 526 L 441 520 L 434 520 L 434 526"/>
  <path class="p6" d="M 441 526 L 448 526 L 448 520 L 441 520 L 441 526"/>
  <path class="p6" d="M 434 520 L 441 520 L 441 513 L 434 513 L 434 520"/>
  <path class="p6" d="M 441 520 L 448 520 L 448 513 L 441 513 L 441 520"/>
  <path class="p6" d="M 421 513 L 428 513 L 428 507 L 421 507 L 421 513"/>
  <path class="p6" d="M 428 513 L 434 513 L 434 507 L 428 507 L 428 513"/>
  <path class="p6" d="M 421 507 L 428 507 L 428 500 L 421 500 L 421 507"/>
  <path class="p6" d="M 428 507 L 434 507 L 434 500 L 428 500 L 428 507"/>
  <path class="p6" d="M 434 513 L 441 513 L 441 507 L 434 507 L 434 513"/>
  <path class="p6" d="M 441 513 L 448 513 L 448 507 L 441 507 L 441 513"/>
  <path class="p6" d="M 434 507 L 441 507 L 441 500 L 434 500 L 434 507"/>
  <path class="p6" d="M 441 507 L 448 507 L 448 500 L 441 500 L 441 507"/>
  <path class="p6" d="M 448 553 L 454 553 L 454 546 L 448 546 L 448 553"/>
  <path class="p6" d="M 454 553 L 461 553 L 461 546 L 454 546 L 454 553"/>
  <path class="p6" d="M 448 546 L 454 546 L 454 539 L 448 539 L 448 546"/>
  <path class="p6" d="M 454 546 L 461 546 L 461 539 L 454 539 L 454 546"/>
  <path class="p6" d="M 461 553 L 467 553 L 467 546 L 461 546 L 461 553"/>
  <path class="p6" d="M 467 553 L 474 553 L 474 546 L 467 546 L 467 553"/>
  <path class="p6" d="M 461 546 L 467 546 L 467 539 L 461 539 L 461 546"/>
  <path class="p6" d="M 467 546 L 474 546 L 474 539 L 467 539 L 467 546"/>
  <path class="p6" d="M 448 539 L 454 539 L 454 533 L 448 533 L 448 539"/>
  <path class="p6" d="M 454 539 L 461 539 L 461 533 L 454 533 L 454 539"/>
  <path class="p6" d="M 448 533 L 454 533 L 454 526 L 448 526 L 448 533"/>
  <path class="p6" d="M 454 533 L 461 533 L 461 526 L 454 526 L 454 533"/>
  <path class="p6" d="M 461 539 L 467 539 L 467 533 L 461 533 L 461 539"/>
  <path class="p6" d="M 467 539 L 474 539 L 474 533 L 467 533 L 467 539"/>
  <path class="p6" d="M 461 533 L 467 533 L 467 526 L 461 526 L 461 533"/>
  <path class="p6" d="M 467 533 L 474 533 L 474 526 L 467 526 L 467 533"/>
  <path class="p6" d="M 474 553 L 480 553 L 480 546 L 474 546 L 474 553"/>
  <path class="p6" d="M 480 553 L 487 553 L 487 546 L 480 546 L 480 553"/>
  <path class="p6" d="M 474 546 L 480 546 L 480 539 L 474 539 L 474 546"/>
  <path class="p6" d="M 480 546 L 487 546 L 487 539 L 480 539 L 480 546"/>
  <path class="p6" d="M 487 553 L 493 553 L 493 546 L 487 546 L 487 553"/>
  <path class="p6" d="M 493 553 L 500 553 L 500 546 L 493 546 L 493 553"/>
  <path class="p6" d="M 487 546 L 493 546 L 493 539 L 487 539 L 487 546"/>
  <path class="p6" d="M 493 546 L 500 546 L 500 539 L 493 539 L 493 546"/>
  <path class="p6" d="M 474 539 L 480 539 L 480 533 L 474 533 L 474 539"/>
  <path class="p6" d="M 480 539 L 487 539 L 487 533 L 480 533 L 480 539"/>
  <path class="p6" d="M 474 533 L 480 533 L 480 526 L 474 526 L 474 533"/>
  <path class="p6" d="M 480 533 L 487 533 L 487 526 L 480 526 L 480 533"/>
  <path class="p6" d="M 487 539 L 493 539 L 493 533 L 487 533 L 487 539"/>
  <path class="p6" d="M 493 539 L 500 539 L 500 533 L 493 533 L 493 539"/>
  <path class="p6" d="M 487 533 L 493 533 L 493 526 L 487 526 L 487 533"/>
  <path class="p6" d="M 493 533 L 500 533 L 500 526 L 493 526 L 493 533"/>
  <path class="p6" d="M 448 526 L 454 526 L 454 520 L 448 520 L 448 526"/>
  <path class="p6" d="M 454 526 L 461 526 L 461 520 L 454 520 L 454 526"/>
  <path class="p6" d="M 448 520 L 454 520 L 454 513 L 448 513 L 448 520"/>
  <path class="p6" d="M 454 520 L 461 520 L 461 513 L 454 513 L 454 520"/>
  <path class="p6" d="M 461 526 L 467 526 L 467 520 L 461 520 L 461 526"/>
  <path class="p6" d="M 467 526 L 474 526 L 474 520 L 467 520 L 467 526"/>
  <path class="p6" d="M 461 520 L 467 520 L 467 513 L 461 513 L 461 520"/>
  <path class="p6" d="M 467 520 L 474 520 L 474 513 L 467 513 L 467 520"/>
  <path class="p6" d="M 448 513 L 454 513 L 454 507 L 448 507 L 448 513"/>
  <path class="p6" d="M 454 513 L 461 513 L 461 507 L 454 507 L 454 513"/>
  <path class="p6" d="M 448 507 L 454 507 L 454 500 L 448 500 L 448 507"/>
  <path class="p6" d="M 454 507 L 461 507 L 461 500 L 454 500 L 454 507"/>
  <path class="p6" d="M 461 513 L 467 513 L 467 507 L 461 507 L 461 513"/>
  <path class="p6" d="M 467 513 L 474 513 L 474 507 L 467 507 L 467 513"/>
  <path class="p6" d="M 461 507 L 467 507 L 467 500 L 461 500 L 461 507"/>
  <path class="p6" d="M 467 507 L 474 507 L 474 500 L 467 500 L 467 507"/>
  <path class="p6" d="M 474 526 L 480 526 L 480 520 L 474 520 L 474 526"/>
  <path class="p6" d="M 480 526 L 487 526 L 487 520 L 480 520 L 480 526"/>
  <path class="p6" d="M 474 520 L 480 520 L 480 513 L 474 513 L 474 520"/>
  <path class="p6" d="M 480 520 L 487 520 L 487 513 L 480 513 L 480 520"/>
  <path class="p6" d="M 487 526 L 493 526 L 493 520 L 487 520 L 487 526"/>
  <path class="p6" d="M 493 526 L 500 526 L 500 520 L 493 520 L 493 526"/>
  <path class="p6" d="M 487 520 L 493 520 L 493 513 L 487 513 L 487 520"/>
  <path class="p6" d="M 493 520 L 500 520 L 500 513 L 493 513 L 493 520"/>
  <path class="p6" d="M 474 513 L 480 513 L 480 507 L 474 507 L 474 513"/>
  <path class="p6" d="M 480 513 L 487 513 L 487 507 L 480 507 L 480 513"/>
  <path class="p6" d="M 474 507 L 480 507 L 480 500 L 474 500 L 474 507"/>
  <path class="p6" d="M 480 507 L 487 507 L 487 500 L 480 500 L 480 507"/>
  <path class="p6" d="M 487 513 L 493 513 L 493 507 L 487 507 L 487 513"/>
  <path class="p6" d="M 493 513 L 500 513 L 500 507 L 493 507 L 493 513"/>
  <path class="p6" d="M 487 507 L 493 507 L 493 500 L 487 500 L 487 507"/>
  <path class="p6" d="M 493 507 L 500 507 L 500 500 L 493 500 L 493 507"/>
  <path class="p6" d="M 500 605 L 507 605 L 507 598 L 500 598 L 500 605"/>
  <path class="p6" d="M 507 605 L 513 605 L 513 598 L 507 598 L 507 605"/>
  <path class="p6" d="M 500 598 L 507 598 L 507 592 L 500 592 L 500 598"/>
  <path class="p6" d="M 507 598 L 513 598 L 513 592 L 507 592 L 507 598"/>
  <path class="p6" d="M 513 605 L 520 605 L 520 598 L 513 598 L 513 605"/>
  <path class="p6" d="M 520 605 L 526 605 L 526 598 L 520 598 L 520 605"/>
  <path class="p6" d="M 513 598 L 520 598 L 520 592 L 513 592 L 513 598"/>
  <path class="p6" d="M 520 598 L 526 598 L 526 592 L 520 592 L 520 598"/>
  <path class="p6" d="M 500 592 L 507 592 L 507 585 L 500 585 L 500 592"/>
  <path class="p6" d="M 507 592 L 513 592 L 513 585 L 507 585 L 507 592"/>
  <path class="p6" d="M 500 585 L 507 585 L 507 579 L 500 579 L 500 585"/>
  <path class="p6" d="M 507 585 L 513 585 L 513 579 L 507 579 L 507 585"/>
  <path class="p6" d="M 513 592 L 520 592 L 520 585 L 513 585 L 513 592"/>
  <path class="p6" d="M 520 592 L 526 592 L 526 585 L 520 585 L 520 592"/>
  <path class="p6" d="M 513 585 L 520 585 L 520 579 L 513 579 L 513 585"/>
  <path class="p6" d="M 520 585 L 526 585 L 526 579 L 520 579 L 520 585"/>
  <path class="p6" d="M 526 605 L 533 605 L 533 598 L 526 598 L 526 605"/>
  <path class="p6" d="M 533 605 L 539 605 L 539 598 L 533 598 L 533 605"/>
  <path class="p6" d="M 526 598 L 533 598 L 533 592 L 526 592 L 526 598"/>
  <path class="p6" d="M 533 598 L 539 598 L 539 592 L 533 592 L 533 598"/>
  <path class="p6" d="M 539 605 L 546 605 L 546 598 L 539 598 L 539 605"/>
  <path class="p6" d="M 546 605 L 553 605 L 553 598 L 546 598 L 546 605"/>
  <path class="p6" d="M 539 598 L 546 598 L 546 592 L 539 592 L 539 598"/>
  <path class="p6" d="M 546 598 L 553 598 L 553 592 L 546 592 L 546 598"/>
  <path class="p6" d="M 526 592 L 533 592 L 533 585 L 526 585 L 526 592"/>
  <path class="p6" d="M 533 592 L 539 592 L 539 585 L 533 585 L 533 592"/>
  <path class="p6" d="M 526 585 L 533 585 L 533 579 L 526 579 L 526 585"/>
  <path class="p6" d="M 533 585 L 539 585 L 539 579 L 533 579 L 533 585"/>
  <path class="p6" d="M 539 592 L 546 592 L 546 585 L 539 585 L 539 592"/>
  <path class="p6" d="M 546 592 L 553 592 L 553 585 L 546 585 L 546 592"/>
  <path class="p6" d="M 539 585 L 546 585 L 546 579 L 539 579 L 539 585"/>
  <path class="p6" d="M 546 585 L 553 585 L 553 579 L 546 579 L 546 585"/>
  <path class="p6" d="M 500 579 L 507 579 L 507 572 L 500 572 L 500 579"/>
  <path class="p6" d="M 507 579 L 513 579 L 513 572 L 507 572 L 507 579"/>
  <path class="p6" d="M 500 572 L 507 572 L 507 566 L 500 566 L 500 572"/>
  <path class="p6" d="M 507 572 L 513 572 L 513 566 L 507 566 L 507 572"/>
  <path class="p6" d="M 513 579 L 520 579 L 520 572 L 513 572 L 513 579"/>
  <path class="p6" d="M 520 579 L 526 579 L 526 572 L 520 572 L 520 579"/>
  <path class="p6" d="M 513 572 L 520 572 L 520 566 L 513 566 L 513 572"/>
  <path class="p6" d="M 520 572 L 526 572 L 526 566 L 520 566 L 520 572"/>
  <path class="p6" d="M 500 566 L 507 566 L 507 559 L 500 559 L 500 566"/>
  <path class="p6" d="M 507 566 L 513 566 L 513 559 L 507 559 L 507 566"/>
  <path class="p6" d="M 500 559 L 507 559 L 507 553 L 500 553 L 500 559"/>
  <path class="p6" d="M 507 559 L 513 559 L 513 553 L 507 553 L 507 559"/>
  <path class="p6" d="M 513 566 L 520 566 L 520 559 L 513 559 L 513 566"/>
  <path class="p6" d="M 520 566 L 526 566 L 526 559 L 520 559 L 520 566"/>
  <path class="p6" d="M 513 559 L 520 559 L 520 553 L 513 553 L 513 559"/>
  <path class="p6" d="M 520 559 L 526 559 L 526 553 L 520 553 L 520 559"/>
  <path class="p6" d="M 526 579 L 533 579 L 533 572 L 526 572 L 526 579"/>
  <path class="p6" d="M 533 579 L 539 579 L 539 572 L 533 572 L 533 579"/>
  <path class="p6" d="M 526 572 L 533 572 L 533 566 L 526 566 L 526 572"/>
  <path class="p6" d="M 533 572 L 539 572 L 539 566 L 533 566 L 533 572"/>
  <path class="p6" d="M 539 579 L 546 579 L 546 572 L 539 572 L 539 579"/>
  <path class="p6" d="M 546 579 L 553 579 L 553 572 L 546 572 L 546 579"/>
  <path class="p6" d="M 539 572 L 546 572 L 546 566 L 539 566 L 539 572"/>
  <path class="p6" d="M 546 572 L 553 572 L 553 566 L 546 566 L 546 572"/>
  <path class="p6" d="M 526 566 L 533 566 L 533 559 L 526 559 L 526 566"/>
  <path class="p6" d="M 533 566 L 539 566 L 539 559 L 533 559 L 533 566"/>
  <path class="p6" d="M 526 559 L 533 559 L 533 553 L 526 553 L 526 559"/>
  <path class="p6" d="M 533 559 L 539 559 L 539 553 L 533 553 L 533 559"/>
  <path class="p6" d="M 539 566 L 546 566 L 546 559 L 539 559 L 539 566"/>
  <path class="p6" d="M 546 566 L 553 566 L 553 559 L 546 559 L 546 566"/>
  <path class="p6" d="M 539 559 L 546 559 L 546 553 L 539 553 L 539 559"/>
  <path class="p6" d="M 546 559 L 553 559 L 553 553 L 546 553 L 546 559"/>
  <path class="p6" d="M 553 605 L 559 605 L 559 598 L 553 598 L 553 605"/>
  <path class="p6" d="M 559 605 L 566 605 L 566 598 L 559 598 L 559 605"/>
  <path class="p6" d="M 553 598 L 559 598 L 559 592 L 553 592 L 553 598"/>
  <path class="p6" d="M 559 598 L 566 598 L 566 592 L 559 592 L 559 598"/>
  <path class="p6" d="M 566 605 L 572 605 L 572 598 L 566 598 L 566 605"/>
  <path class="p6" d="M 572 605 L 579 605 L 579 598 L 572 598 L 572 605"/>
  <path class="p6" d="M 566 598 L 572 598 L 572 592 L 566 592 L 566 598"/>
  <path class="p6" d="M 572 598 L 579 598 L 579 592 L 572 592 L 572 598"/>
  <path class="p6" d="M 553 592 L 559 592 L 559 585 L 553 585 L 553 592"/>
  <path class="p6" d="M 559 592 L 566 592 L 566 585 L 559 585 L 559 592"/>
  <path class="p6" d="M 553 585 L 559 585 L 559 579 L 553 579 L 553 585"/>
  <path class="p6" d="M 559 585 L 566 585 L 566 579 L 559 579 L 559 585"/>
  <path class="p6" d="M 566 592 L 572 592 L 572 585 L 566 585 L 566 592"/>
  <path class="p6" d="M 572 592 L 579 592 L 579 585 L 572 585 L 572 592"/>
  <path class="p6" d="M 566 585 L 572 585 L 572 579 L 566 579 L 566 585"/>
  <path class="p6" d="M 572 585 L 579 585 L 579 579 L 572 579 L 572 585"/>
  <path class="p6" d="M 579 605 L 585 605 L 585 598 L 579 598 L 579 605"/>
  <path class="p6" d="M 585 605 L 592 605 L 592 598 L 585 598 L 585 605"/>
  <path class="p6" d="M 579 598 L 585 598 L 585 592 L 579 592 L 579 598"/>
  <path class="p6" d="M 585 598 L 592 598 L 592 592 L 585 592 L 585 598"/>
  <path class="p6" d="M 592 605 L 598 605 L 598 598 L 592 598 L 592 605"/>
  <path class="p6" d="M 598 605 L 605 605 L 605 598 L 598 598 L 598 605"/>
  <path class="p6" d="M 592 598 L 598 598 L 598 592 L 592 592 L 592 598"/>
  <path class="p6" d="M 598 598 L 605 598 L 605 592 L 598 592 L 598 598"/>
  <path class="p6" d="M 579 592 L 585 592 L 585 585 L 579 585 L 579 592"/>
  <path class="p6" d="M 585 592 L 592 592 L 592 585 L 585 585 L 585 592"/>
  <path class="p6" d="M 579 585 L 585 585 L 585 579 L 579 579 L 579 585"/>
  <path class="p6" d="M 585 585 L 592 585 L 592 579 L 585 579 L 585 585"/>
  <path class="p6" d="M 592 592 L 598 592 L 598 585 L 592 585 L 592 592"/>
  <path class="p6" d="M 598 592 L 605 592 L 605 585 L 598 585 L 598 592"/>
  <path class="p6" d="M 592 585 L 598 585 L 598 579 L 592 579 L 592 585"/>
  <path class="p6" d="M 598 585 L 605 585 L 605 579 L 598 579 L 598 585"/>
  <path class="p6" d="M 553 579 L 559 579 L 559 572 L 553 572 L 553 579"/>
  <path class="p6" d="M 559 579 L 566 579 L 566 572 L 559 572 L 559 579"/>
  <path class="p6" d="M 553 572 L 559 572 L 559 566 L 553 566 L 553 572"/>
  <path class="p6" d="M 559 572 L 566 572 L 566 566 L 559 566 L 559 572"/>
  <path class="p6" d="M 566 579 L 572 579 L 572 572 L 566 572 L 566 579"/>
  <path class="p6" d="M 572 579 L 579 579 L 579 572 L 572 572 L 572 579"/>
  <path class="p6" d="M 566 572 L 572 572 L 572 566 L 566 566 L 566 572"/>
  <path class="p6" d="M 572 572 L 579 572 L 579 566 L 572 566 L 572 572"/>
  <path class="p6" d="M 553 566 L 559 566 L 559 559 L 553 559 L 553 566"/>
  <path class="p6" d="M 559 566 L 566 566 L 566 559 L 559 559 L 559 566"/>
  <path class="p6" d="M 553 559 L 559 559 L 559 553 L 553 553 L 553 559"/>
  <path class="p6" d="M 559 559 L 566 559 L 566 553 L 559 553 L 559 559"/>
  <path class="p6" d="M 566 566 L 572 566 L 572 559 L 566 559 L 566 566"/>
  <path class="p6" d="M 572 566 L 579 566 L 579 559 L 572 559 L 572 566"/>
  <path class="p6" d="M 566 559 L 572 559 L 572 553 L 566 553 L 566 559"/>
  <path class="p6" d="M 572 559 L 579 559 L 579 553 L 572 553 L 572 559"/>
  <path class="p6" d="M 579 579 L 585 579 L 585 572 L 579 572 L 579 579"/>
  <path class="p6" d="M 585 579 L 592 579 L 592 572 L 585 572 L 585 579"/>
  <path class="p6" d="M 579 572 L 585 572 L 585 566 L 579 566 L 579 572"/>
  <path class="p6" d="M 585 572 L 592 572 L 592 566 L 585 566 L 585 572"/>
  <path class="p6" d="M 592 579 L 598 579 L 598 572 L 592 572 L 592 579"/>
  <path class="p6" d="M 598 579 L 605 579 L 605 572 L 598 572 L 598 579"/>
  <path class="p6" d="M 592 572 L 598 572 L 598 566 L 592 566 L 592 572"/>
  <path class="p6" d="M 598 572 L 605 572 L 605 566 L 598 566 L 598 572"/>
  <path class="p6" d="M 579 566 L 585 566 L 585 559 L 579 559 L 579 566"/>
  <path class="p6" d="M 585 566 L 592 566 L 592 559 L 585 559 L 585 566"/>
  <path class="p6" d="M 579 559 L 585 559 L 585 553 L 579 553 L 579 559"/>
  <path class="p6" d="M 585 559 L 592 559 L 592 553 L 585 553 L 585 559"/>
  <path class="p6" d="M 592 566 L 598 566 L 598 559 L 592 559 L 592 566"/>
  <path class="p6" d="M 598 566 L 605 566 L 605 559 L 598 559 L 598 566"/>
  <path class="p6" d="M 592 559 L 598 559 L 598 553 L 592 553 L 592 559"/>
  <path class="p6" d="M 598 559 L 605 559 L 605 553 L 598 553 L 598 559"/>
  <path class="p6" d="M 500 553 L 507 553 L 507 546 L 500 546 L 500 553"/>
  <path class="p6" d="M 507 553 L 513 553 L 513 546 L 507 546 L 507 553"/>
  <path class="p6" d="M 500 546 L 507 546 L 507 539 L 500 539 L 500 546"/>
  <path class="p6" d="M 507 546 L 513 546 L 513 539 L 507 539 L 507 546"/>
  <path class="p6" d="M 513 553 L 520 553 L 520 546 L 513 546 L 513 553"/>
  <path class="p6" d="M 520 553 L 526 553 L 526 546 L 520 546 L 520 553"/>
  <path class="p6" d="M 513 546 L 520 546 L 520 539 L 513 539 L 513 546"/>
  <path class="p6" d="M 520 546 L 526 546 L 526 539 L 520 539 L 520 546"/>
  <path class="p6" d="M 500 539 L 507 539 L 507 533 L 500 533 L 500 539"/>
  <path class="p6" d="M 507 539 L 513 539 L 513 533 L 507 533 L 507 539"/>
  <path class="p6" d="M 500 533 L 507 533 L 507 526 L 500 526 L 500 533"/>
  <path class="p6" d="M 507 533 L 513 533 L 513 526 L 507 526 L 507 533"/>
  <path class="p6" d="M 513 539 L 520 539 L 520 533 L 513 533 L 513 539"/>
  <path class="p6" d="M 520 539 L 526 539 L 526 533 L 520 533 L 520 539"/>
  <path class="p6" d="M 513 533 L 520 533 L 520 526 L 513 526 L 513 533"/>
  <path class="p6" d="M 520 533 L 526 533 L 526 526 L 520 526 L 520 533"/>
  <path class="p6" d="M 526 553 L 533 553 L 533 546 L 526 546 L 526 553"/>
  <path class="p6" d="M 533 553 L 539 553 L 539 546 L 533 546 L 533 553"/>
  <path class="p6" d="M 526 546 L 533 546 L 533 539 L 526 539 L 526 546"/>
  <path class="p6" d="M 533 546 L 539 546 L 539 539 L 533 539 L 533 546"/>
  <path class="p6" d="M 539 553 L 546 553 L 546 546 L 539 546 L 539 553"/>
  <path class="p6" d="M 546 553 L 553 553 L 553 546 L 546 546 L 546 553"/>
  <path class="p6" d="M 539 546 L 546 546 L 546 539 L 539 539 L 539 546"/>
  <path class="p6" d="M 546 546 L 553 546 L 553 539 L 546 539 L 546 546"/>
  <path class="p6" d="M 526 539 L 533 539 L 533 533 L 526 533 L 526 539"/>
  <path class="p6" d="M 533 539 L 539 539 L 539 533 L 533 533 L 533 539"/>
  <path class="p6" d="M 526 533 L 533 533 L 533 526 L 526 526 L 526 533"/>
  <path class="p6" d="M 533 533 L 539 533 L 539 526 L 533 526 L 533 533"/>
  <path class="p6" d="M 539 539 L 546 539 L 546 533 L 539 533 L 539 539"/>
  <path class="p6" d="M 546 539 L 553 539 L 553 533 L 546 533 L 546 539"/>
  <path class="p6" d="M 539 533 L 546 533 L 546 526 L 539 526 L 539 533"/>
  <path class="p6" d="M 546 533 L 553 533 L 553 526 L 546 526 L 546 533"/>
  <path class="p6" d="M 500 526 L 507 526 L 507 520 L 500 520 L 500 526"/>
  <path class="p6" d="M 507 526 L 513 526 L 513 520 L 507 520 L 507 526"/>
  <path class="p6" d="M 500 520 L 507 520 L 507 513 L 500 513 L 500 520"/>
  <path class="p6" d="M 507 520 L 513 520 L 513 513 L 507 513 L 507 520"/>
  <path class="p6" d="M 513 526 L 520 526 L 520 520 L 513 520 L 513 526"/>
  <path class="p6" d="M 520 526 L 526 526 L 526 520 L 520 520 L 520 526"/>
  <path class="p6" d="M 513 520 L 520 520 L 520 513 L 513 513 L 513 520"/>
  <path class="p6" d="M 520 520 L 526 520 L 526 513 L 520 513 L 520 520"/>
  <path class="p6" d="M 500 513 L 507 513 L 507 507 L 500 507 L 500 513"/>
  <path class="p6" d="M 507 513 L 513 513 L 513 507 L 507 507 L 507 513"/>
  <path class="p6" d="M 500 507 L 507 507 L 507 500 L 500 500 L 500 507"/>
  <line x1="500" y1="500" x2="507" y2="500"/>
  <path class="p6" d="M 507 507 L 513 507 L 513 500 L 507 500 L 507 507"/>
  <line x1="507" y1="500" x2="513" y2="500"/>
  <path class="p6" d="M 513 513 L 520 513 L 520 507 L 513 507 L 513 513"/>
  <path class="p6" d="M 520 513 L 526 513 L 526 507 L 520 507 L 520 513"/>
  <path class="p6" d="M 513 507 L 520 507 L 520 500 L 513 500 L 513 507"/>
  <line x1="513" y1="500" x2="520" y2="500"/>
  <path class="p6" d="M 520 507 L 526 507 L 526 500 L 520 500 L 520 507"/>
  <line x1="520" y1="500" x2="526" y2="500"/>
  <path class="p6" d="M 526 526 L 533 526 L 533 520 L 526 520 L 526 526"/>
  <path class="p6" d="M 533 526 L 539 526 L 539 520 L 533 520 L 533 526"/>
  <path class="p6" d="M 526 520 L 533 520 L 533 513 L 526 513 L 526 520"/>
  <path class="p6" d="M 533 520 L 539 520 L 539 513 L 533 513 L 533 520"/>
  <path class="p6" d="M 539 526 L 546 526 L 546 520 L 539 520 L 539 526"/>
  <path class="p6" d="M 546 526 L 553 526 L 553 520 L 546 520 L 546 526"/>
  <path class="p6" d="M 539 520 L 546 520 L 546 513 L 539 513 L 539 520"/>
  <path class="p6" d="M 546 520 L 553 520 L 553 513 L 546 513 L 546 520"/>
  <path class="p6" d="M 526 513 L 533 513 L 533 507 L 526 507 L 526 513"/>
  <path class="p6" d="M 533 513 L 539 513 L 539 507 L 533 507 L 533 513"/>
  <path class="p6" d="M 526 507 L 533 507 L 533 500 L 526 500 L 526 507"/>
  <line x1="526" y1="500" x2="533" y2="500"/>
  <path class="p6" d="M 533 507 L 539 507 L 539 500 L 533 500 L 533 507"/>
  <line x1="533" y1="500" x2="539" y2="500"/>
  <path class="p6" d="M 539 513 L 546 513 L 546 507 L 539 507 L 539 513"/>
  <path class="p6" d="M 546 513 L 553 513 L 553 507 L 546 507 L 546 513"/>
  <path class="p6" d="M 539 507 L 546 507 L 546 500 L 539 500 L 539 507"/>
  <line x1="539" y1="500" x2="546" y2="500"/>
  <path class="p6" d="M 546 507 L 553 507 L 553 500 L 546 500 L 546 507"/>
  <line x1="546" y1="500" x2="553" y2="500"/>
  <path class="p6" d="M 553 553 L 559 553 L 559 546 L 553 546 L 553 553"/>
  <path class="p6" d="M 559 553 L 566 553 L 566 546 L 559 546 L 559 553"/>
  <path class="p6" d="M 553 546 L 559 546 L 559 539 L 553 539 L 553 546"/>
  <path class="p6" d="M 559 546 L 566 546 L 566 539 L 559 539 L 559 546"/>
  <path class="p6" d="M 566 553 L 572 553 L 572 546 L 566 546 L 566 553"/>
  <path class="p6" d="M 572 553 L 579 553 L 579 546 L 572 546 L 572 553"/>
  <path class="p6" d="M 566 546 L 572 546 L 572 539 L 566 539 L 566 546"/>
  <path class="p6" d="M 572 546 L 579 546 L 579 539 L 572 539 L 572 546"/>
  <path class="p6" d="M 553 539 L 559 539 L 559 533 L 553 533 L 553 539"/>
  <path class="p6" d="M 559 539 L 566 539 L 566 533 L 559 533 L 559 539"/>
  <path class="p6" d="M 553 533 L 559 533 L 559 526 L 553 526 L 553 533"/>
  <path class="p6" d="M 559 533 L 566 533 L 566 526 L 559 526 L 559 533"/>
  <path class="p6" d="M 566 539 L 572 539 L 572 533 L 566 533 L 566 539"/>
  <path class="p6" d="M 572 539 L 579 539 L 579 533 L 572 533 L 572 539"/>
  <path class="p6" d="M 566 533 L 572 533 L 572 526 L 566 526 L 566 533"/>
  <path class="p6" d="M 572 533 L 579 533 L 579 526 L 572 526 L 572 533"/>
  <path class="p6" d="M 579 553 L 585 553 L 585 546 L 579 546 L 579 553"/>
  <path class="p6" d="M 585 553 L 592 553 L 592 546 L 585 546 L 585 553"/>
  <path class="p6" d="M 579 546 L 585 546 L 585 539 L 579 539 L 579 546"/>
  <path class="p6" d="M 585 546 L 592 546 L 592 539 L 585 539 L 585 546"/>
  <path class="p6" d="M 592 553 L 598 553 L 598 546 L 592 546 L 592 553"/>
  <path class="p6" d="M 598 553 L 605 553 L 605 546 L 598 546 L 598 553"/>
  <path class="p6" d="M 592 546 L 598 546 L 598 539 L 592 539 L 592 546"/>
  <path class="p6" d="M 598 546 L 605 546 L 605 539 L 598 539 L 598 546"/>
  <path class="p6" d="M 579 539 L 585 539 L 585 533 L 579 533 L 579 539"/>
  <path class="p6" d="M 585 539 L 592 539 L 592 533 L 585 533 L 585 539"/>
  <path class="p6" d="M 579 533 L 585 533 L 585 526 L 579 526 L 579 533"/>
  <path class="p6" d="M 585 533 L 592 533 L 592 526 L 585 526 L 585 533"/>
  <path class="p6" d="M 592 539 L 598 539 L 598 533 L 592 533 L 592 539"/>
  <path class="p6" d="M 598 539 L 605 539 L 605 533 L 598 533 L 598 539"/>
  <path class="p6" d="M 592 533 L 598 533 L 598 526 L 592 526 L 592 533"/>
  <path class="p6" d="M 598 533 L 605 533 L 605 526 L 598 526 L 598 533"/>
  <path class="p6" d="M 553 526 L 559 526 L 559 520 L 553 520 L 553 526"/>
  <path class="p6" d="M 559 526 L 566 526 L 566 520 L 559 520 L 559 526"/>
  <path class="p6" d="M 553 520 L 559 520 L 559 513 L 553 513 L 553 520"/>
  <path class="p6" d="M 559 520 L 566 520 L 566 513 L 559 513 L 559 520"/>
  <path class="p6" d="M 566 526 L 572 526 L 572 520 L 566 520 L 566 526"/>
  <path class="p6" d="M 572 526 L 579 526 L 579 520 L 572 520 L 572 526"/>
  <path class="p6" d="M 566 520 L 572 520 L 572 513 L 566 513 L 566 520"/>
  <path class="p6" d="M 572 520 L 579 520 L 579 513 L 572 513 L 572 520"/>
  <path class="p6" d="M 553 513 L 559 513 L 559 507 L 553 507 L 553 513"/>
  <path class="p6" d="M 559 513 L 566 513 L 566 507 L 559 507 L 559 513"/>
  <path class="p6" d="M 553 507 L 559 507 L 559 500 L 553 500 L 553 507"/>
  <line x1="553" y1="500" x2="559" y2="500"/>
  <path class="p6" d="M 559 507 L 566 507 L 566 500 L 559 500 L 559 507"/>
  <line x1="559" y1="500" x2="566" y2="500"/>
  <path class="p6" d="M 566 513 L 572 513 L 572 507 L 566 507 L 566 513"/>
  <path class="p6" d="M 572 513 L 579 513 L 579 507 L 572 507 L 572 513"/>
  <path class="p6" d="M 566 507 L 572 507 L 572 500 L 566 500 L 566 507"/>
  <line x1="566" y1="500" x2="572" y2="500"/>
  <path class="p6" d="M 572 507 L 579 507 L 579 500 L 572 500 L 572 507"/>
  <line x1="572" y1="500" x2="579" y2="500"/>
  <path class="p6" d="M 579 526 L 585 526 L 585 520 L 579 520 L 579 526"/>
  <path class="p6" d="M 585 526 L 592 526 L 592 520 L 585 520 L 585 526"/>
  <path class="p6" d="M 579 520 L 585 520 L 585 513 L 579 513 L 579 520"/>
  <path class="p6" d="M 585 520 L 592 520 L 592 513 L 585 513 L 585 520"/>
  <path class="p6" d="M 592 526 L 598 526 L 598 520 L 592 520 L 592 526"/>
  <path class="p6" d="M 598 526 L 605 526 L 605 520 L 598 520 L 598 526"/>
  <path class="p6" d="M 592 520 L 598 520 L 598 513 L 592 513 L 592 520"/>
  <path class="p6" d="M 598 520 L 605 520 L 605 513 L 598 513 L 598 520"/>
  <path class="p6" d="M 579 513 L 585 513 L 585 507 L 579 507 L 579 513"/>
  <path class="p6" d="M 585 513 L 592 513 L 592 507 L 585 507 L 585 513"/>
  <path class="p6" d="M 579 507 L 585 507 L 585 500 L 579 500 L 579 507"/>
  <line x1="579" y1="500" x2="585" y2="500"/>
  <path class="p6" d="M 585 507 L 592 507 L 592 500 L 585 500 L 585 507"/>
  <line x1="585" y1="500" x2="592" y2="500"/>
  <path class="p6" d="M 592 513 L 598 513 L 598 507 L 592 507 L 592 513"/>
  <path class="p6" d="M 598 513 L 605 513 L 605 507 L 598 507 L 598 513"/>
  <path class="p6" d="M 592 507 L 598 507 L 598 500 L 592 500 L 592 507"/>
  <line x1="592" y1="500" x2="598" y2="500"/>
  <path class="p6" d="M 598 507 L 605 507 L 605 500 L 598 500 L 598 507"/>
  <line x1="598" y1="500" x2="605" y2="500"/>
  <path class="p6" d="M 395 500 L 402 500 L 402 493 L 395 493 L 395 500"/>
  <path class="p6" d="M 402 500 L 408 500 L 408 493 L 402 493 L 402 500"/>
  <path class="p6" d="M 395 493 L 402 493 L 402 487 L 395 487 L 395 493"/>
  <path class="p6" d="M 402 493 L 408 493 L 408 487 L 402 487 L 402 493"/>
  <path class="p6" d="M 408 500 L 415 500 L 415 493 L 408 493 L 408 500"/>
  <path class="p6" d="M 415 500 L 421 500 L 421 493 L 415 493 L 415 500"/>
  <path class="p6" d="M 408 493 L 415 493 L 415 487 L 408 487 L 408 493"/>
  <path class="p6" d="M 415 493 L 421 493 L 421 487 L 415 487 L 415 493"/>
  <path class="p6" d="M 395 487 L 402 487 L 402 480 L 395 480 L 395 487"/>
  <path class="p6" d="M 402 487 L 408 487 L 408 480 L 402 480 L 402 487"/>
  <path class="p6" d="M 395 480 L 402 480 L 402 474 L 395 474 L 395 480"/>
  <path class="p6" d="M 402 480 L 408 480 L 408 474 L 402 474 L 402 480"/>
  <path class="p6" d="M 408 487 L 415 487 L 415 480 L 408 480 L 408 487"/>
  <path class="p6" d="M 415 487 L 421 487 L 421 480 L 415 480 L 415 487"/>
  <path class="p6" d="M 408 480 L 415 480 L 415 474 L 408 474 L 408 480"/>
  <path class="p6" d="M 415 480 L 421 480 L 421 474 L 415 474 L 415 480"/>
  <path class="p6" d="M 421 500 L 428 500 L 428 493 L 421 493 L 421 500"/>
  <path class="p6" d="M 428 500 L 434 500 L 434 493 L 428 493 L 428 500"/>
  <path class="p6" d="M 421 493 L 428 493 L 428 487 L 421 487 L 421 493"/>
  <path class="p6" d="M 428 493 L 434 493 L 434 487 L 428 487 L 428 493"/>
  <path class="p6" d="M 434 500 L 441 500 L 441 493 L 434 493 L 434 500"/>
  <path class="p6" d="M 441 500 L 448 500 L 448 493 L 441 493 L 441 500"/>
  <path class="p6" d="M 434 493 L 441 493 L 441 487 L 434 487 L 434 493"/>
  <path class="p6" d="M 441 493 L 448 493 L 448 487 L 441 487 L 441 493"/>
  <path class="p6" d="M 421 487 L 428 487 L 428 480 L 421 480 L 421 487"/>
  <path class="p6" d="M 428 487 L 434 487 L 434 480 L 428 480 L 428 487"/>
  <path class="p6" d="M 421 480 L 428 480 L 428 474 L 421 474 L 421 480"/>
  <path class="p6" d="M 428 480 L 434 480 L 434 474 L 428 474 L 428 480"/>
  <path class="p6" d="M 434 487 L 441 487 L 441 480 L 434 480 L 434 487"/>
  <path class="p6" d="M 441 487 L 448 487 L 448 480 L 441 480 L 441 487"/>
  <path class="p6" d="M 434 480 L 441 480 L 441 474 L 434 474 L 434 480"/>
  <path class="p6" d="M 441 480 L 448 480 L 448 474 L 441 474 L 441 480"/>
  <path class="p6" d="M 395 474 L 402 474 L 402 467 L 395 467 L 395 474"/>
  <path class="p6" d="M 402 474 L 408 474 L 408 467 L 402 467 L 402 474"/>
  <path class="p6" d="M 395 467 L 402 467 L 402 461 L 395 461 L 395 467"/>
  <path class="p6" d="M 402 467 L 408 467 L 408 461 L 402 461 L 402 467"/>
  <path class="p6" d="M 408 474 L 415 474 L 415 467 L 408 467 L 408 474"/>
  <path class="p6" d="M 415 474 L 421 474 L 421 467 L 415 467 L 415 474"/>
  <path class="p6" d="M 408 467 L 415 467 L 415 461 L 408 461 L 408 467"/>
  <path class="p6" d="M 415 467 L 421 467 L 421 461 L 415 461 L 415 467"/>
  <path class="p6" d="M 395 461 L 402 461 L 402 454 L 395 454 L 395 461"/>
  <path class="p6" d="M 402 461 L 408 461 L 408 454 L 402 454 L 402 461"/>
  <path class="p6" d="M 395 454 L 402 454 L 402 448 L 395 448 L 395 454"/>
  <path class="p6" d="M 402 454 L 408 454 L 408 448 L 402 448 L 402 454"/>
  <path class="p6" d="M 408 461 L 415 461 L 415 454 L 408 454 L 408 461"/>
  <path class="p6" d="M 415 461 L 421 461 L 421 454 L 415 454 L 415 461"/>
  <path class="p6" d="M 408 454 L 415 454 L 415 448 L 408 448 L 408 454"/>
  <path class="p6" d="M 415 454 L 421 454 L 421 448 L 415 448 L 415 454"/>
  <path class="p6" d="M 421 474 L 428 474 L 428 467 L 421 467 L 421 474"/>
  <path class="p6" d="M 428 474 L 434 474 L 434 467 L 428 467 L 428 474"/>
  <path class="p6" d="M 421 467 L 428 467 L 428 461 L 421 461 L 421 467"/>
  <path class="p6" d="M 428 467 L 434 467 L 434 461 L 428 461 L 428 467"/>
  <path class="p6" d="M 434 474 L 441 474 L 441 467 L 434 467 L 434 474"/>
  <path class="p6" d="M 441 474 L 448 474 L 448 467 L 441 467 L 441 474"/>
  <path class="p6" d="M 434 467 L 441 467 L 441 461 L 434 461 L 434 467"/>
  <path class="p6" d="M 441 467 L 448 467 L 448 461 L 441 461 L 441 467"/>
  <path class="p6" d="M 421 461 L 428 461 L 428 454 L 421 454 L 421 461"/>
  <path class="p6" d="M 428 461 L 434 461 L 434 454 L 428 454 L 428 461"/>
  <path class="p6" d="M 421 454 L 428 454 L 428 448 L 421 448 L 421 454"/>
  <path class="p6" d="M 428 454 L 434 454 L 434 448 L 428 448 L 428 454"/>
  <path class="p6" d="M 434 461 L 441 461 L 441 454 L 434 454 L 434 461"/>
  <path class="p6" d="M 441 461 L 448 461 L 448 454 L 441 454 L 441 461"/>
  <path class="p6" d="M 434 454 L 441 454 L 441 448 L 434 448 L 434 454"/>
  <path class="p6" d="M 441 454 L 448 454 L 448 448 L 441 448 L 441 454"/>
  <path class="p6" d="M 448 500 L 454 500 L 454 493 L 448 493 L 448 500"/>
  <path class="p6" d="M 454 500 L 461 500 L 461 493 L 454 493 L 454 500"/>
  <path class="p6" d="M 448 493 L 454 493 L 454 487 L 448 487 L 448 493"/>
  <path class="p6" d="M 454 493 L 461 493 L 461 487 L 454 487 L 454 493"/>
  <path class="p6" d="M 461 500 L 467 500 L 467 493 L 461 493 L 461 500"/>
  <path class="p6" d="M 467 500 L 474 500 L 474 493 L 467 493 L 467 500"/>
  <path class="p6" d="M 461 493 L 467 493 L 467 487 L 461 487 L 461 493"/>
  <path class="p6" d="M 467 493 L 474 493 L 474 487 L 467 487 L 467 493"/>
  <path class="p6" d="M 448 487 L 454 487 L 454 480 L 448 480 L 448 487"/>
  <path class="p6" d="M 454 487 L 461 487 L 461 480 L 454 480 L 454 487"/>
  <path class="p6" d="M 448 480 L 454 480 L 454 474 L 448 474 L 448 480"/>
  <path class="p6" d="M 454 480 L 461 480 L 461 474 L 454 474 L 454 480"/>
  <path class="p6" d="M 461 487 L 467 487 L 467 480 L 461 480 L 461 487"/>
  <path class="p6" d="M 467 487 L 474 487 L 474 480 L 467 480 L 467 487"/>
  <path class="p6" d="M 461 480 L 467 480 L 467 474 L 461 474 L 461 480"/>
  <path class="p6" d="M 467 480 L 474 480 L 474 474 L 467 474 L 467 480"/>
  <path class="p6" d="M 474 500 L 480 500 L 480 493 L 474 493 L 474 500"/>
  <path class="p6" d="M 480 500 L 487 500 L 487 493 L 480 493 L 480 500"/>
  <path class="p6" d="M 474 493 L 480 493 L 480 487 L 474 487 L 474 493"/>
  <path class="p6" d="M 480 493 L 487 493 L 487 487 L 480 487 L 480 493"/>
  <path class="p6" d="M 487 500 L 493 500 L 493 493 L 487 493 L 487 500"/>
  <path class="p6" d="M 493 500 L 500 500 L 500 493 L 493 493 L 493 500"/>
  <line x1="500" y1="500" x2="500" y2="493"/>
  <path class="p6" d="M 487 493 L 493 493 L 493 487 L 487 487 L 487 493"/>
  <path class="p6" d="M 493 493 L 500 493 L 500 487 L 493 487 L 493 493"/>
  <line x1="500" y1="493" x2="500" y2="487"/>
  <path class="p6" d="M 474 487 L 480 487 L 480 480 L 474 480 L 474 487"/>
  <path class="p6" d="M 480 487 L 487 487 L 487 480 L 480 480 L 480 487"/>
  <path class="p6" d="M 474 480 L 480 480 L 480 474 L 474 474 L 474 480"/>
  <path class="p6" d="M 480 480 L 487 480 L 487 474 L 480 474 L 480 480"/>
  <path class="p6" d="M 487 487 L 493 487 L 493 480 L 487 480 L 487 487"/>
  <path class="p6" d="M 493 487 L 500 487 L 500 480 L 493 480 L 493 487"/>
  <line x1="500" y1="487" x2="500" y2="480"/>
  <path class="p6" d="M 487 480 L 493 480 L 493 474 L 487 474 L 487 480"/>
  <path class="p6" d="M 493 480 L 500 480 L 500 474 L 493 474 L 493 480"/>
  <line x1="500" y1="480" x2="500" y2="474"/>
  <path class="p6" d="M 448 474 L 454 474 L 454 467 L 448 467 L 448 474"/>
  <path class="p6" d="M 454 474 L 461 474 L 461 467 L 454 467 L 454 474"/>
  <path class="p6" d="M 448 467 L 454 467 L 454 461 L 448 461 L 448 467"/>
  <path class="p6" d="M 454 467 L 461 467 L 461 461 L 454 461 L 454 467"/>
  <path class="p6" d="M 461 474 L 467 474 L 467 467 L 461 467 L 461 474"/>
  <path class="p6" d="M 467 474 L 474 474 L 474 467 L 467 467 L 467 474"/>
  <path class="p6" d="M 461 467 L 467 467 L 467 461 L 461 461 L 461 467"/>
  <path class="p6" d="M 467 467 L 474 467 L 474 461 L 467 461 L 467 467"/>
  <path class="p6" d="M 448 461 L 454 461 L 454 454 L 448 454 L 448 461"/>
  <path class="p6" d="M 454 461 L 461 461 L 461 454 L 454 454 L 454 461"/>
  <path class="p6" d="M 448 454 L 454 454 L 454 448 L 448 448 L 448 454"/>
  <path class="p6" d="M 454 454 L 461 454 L 461 448 L 454 448 L 454 454"/>
  <path class="p6" d="M 461 461 L 467 461 L 467 454 L 461 454 L 461 461"/>
  <path class="p6" d="M 467 461 L 474 461 L 474 454 L 467 454 L 467 461"/>
  <path class="p6" d="M 461 454 L 467 454 L 467 448 L 461 448 L 461 454"/>
  <path class="p6" d="M 467 454 L 474 454 L 474 448 L 467 448 L 467 454"/>
  <path class="p6" d="M 474 474 L 480 474 L 480 467 L 474 467 L 474 474"/>
  <path class="p6" d="M 480 474 L 487 474 L 487 467 L 480 467 L 480 474"/>
  <path class="p6" d="M 474 467 L 480 467 L 480 461 L 474 461 L 474 467"/>
  <path class="p6" d="M 480 467 L 487 467 L 487 461 L 480 461 L 480 467"/>
  <path class="p6" d="M 487 474 L 493 474 L 493 467 L 487 467 L 487 474"/>
  <path class="p6" d="M 493 474 L 500 474 L 500 467 L 493 467 L 493 474"/>
  <line x1="500" y1="474" x2="500" y2="467"/>
  <path class="p6" d="M 487 467 L 493 467 L 493 461 L 487 461 L 487 467"/>
  <path class="p6" d="M 493 467 L 500 467 L 500 461 L 493 461 L 493 467"/>
  <line x1="500" y1="467" x2="500" y2="461"/>
  <path class="p6" d="M 474 461 L 480 461 L 480 454 L 474 454 L 474 461"/>
  <path class="p6" d="M 480 461 L 487 461 L 487 454 L 480 454 L 480 461"/>
  <path class="p6" d="M 474 454 L 480 454 L 480 448 L 474 448 L 474 454"/>
  <path class="p6" d="M 480 454 L 487 454 L 487 448 L 480 448 L 480 454"/>
  <path class="p6" d="M 487 461 L 493 461 L 493 454 L 487 454 L 487 461"/>
  <path class="p6" d="M 493 461 L 500 461 L 500 454 L 493 454 L 493 461"/>
  <line x1="500" y1="461" x2="500" y2="454"/>
  <path class="p6" d="M 487 454 L 493 454 L 493 448 L 487 448 L 487 454"/>
  <path class="p6" d="M 493 454 L 500 454 L 500 448 L 493 448 L 493 454"/>
  <line x1="500" y1="454" x2="500" y2="448"/>
  <path class="p6" d="M 395 448 L 402 448 L 402 441 L 395 441 L 395 448"/>
  <path class="p6" d="M 402 448 L 408 448 L 408 441 L 402 441 L 402 448"/>
  <path class="p6" d="M 395 441 L 402 441 L 402 434 L 395 434 L 395 441"/>
  <path class="p6" d="M 402 441 L 408 441 L 408 434 L 402 434 L 402 441"/>
  <path class="p6" d="M 408 448 L 415 448 L 415 441 L 408 441 L 408 448"/>
  <path class="p6" d="M 415 448 L 421 448 L 421 441 L 415 441 L 415 448"/>
  <path class="p6" d="M 408 441 L 415 441 L 415 434 L 408 434 L 408 441"/>
  <path class="p6" d="M 415 441 L 421 441 L 421 434 L 415 434 L 415 441"/>
  <path class="p6" d="M 395 434 L 402 434 L 402 428 L 395 428 L 395 434"/>
  <path class="p6" d="M 402 434 L 408 434 L 408 428 L 402 428 L 402 434"/>
  <path class="p6" d="M 395 428 L 402 428 L 402 421 L 395 421 L 395 428"/>
  <path class="p6" d="M 402 428 L 408 428 L 408 421 L 402 421 L 402 428"/>
  <path class="p6" d="M 408 434 L 415 434 L 415 428 L 408 428 L 408 434"/>
  <path class="p6" d="M 415 434 L 421 434 L 421 428 L 415 428 L 415 434"/>
  <path class="p6" d="M 408 428 L 415 428 L 415 421 L 408 421 L 408 428"/>
  <path class="p6" d="M 415 428 L 421 428 L 421 421 L 415 421 L 415 428"/>
  <path class="p6" d="M 421 448 L 428 448 L 428 441 L 421 441 L 421 448"/>
  <path class="p6" d="M 428 448 L 434 448 L 434 441 L 428 441 L 428 448"/>
  <path class="p6" d="M 421 441 L 428 441 L 428 434 L 421 434 L 421 441"/>
  <path class="p6" d="M 428 441 L 434 441 L 434 434 L 428 434 L 428 441"/>
  <path class="p6" d="M 434 448 L 441 448 L 441 441 L 434 441 L 434 448"/>
  <path class="p6" d="M 441 448 L 448 448 L 448 441 L 441 441 L 441 448"/>
  <path class="p6" d="M 434 441 L 441 441 L 441 434 L 434 434 L 434 441"/>
  <path class="p6" d="M 441 441 L 448 441 L 448 434 L 441 434 L 441 441"/>
  <path class="p6" d="M 421 434 L 428 434 L 428 428 L 421 428 L 421 434"/>
  <path class="p6" d="M 428 434 L 434 434 L 434 428 L 428 428 L 428 434"/>
  <path class="p6" d="M 421 428 L 428 428 L 428 421 L 421 421 L 421 428"/>
  <path class="p6" d="M 428 428 L 434 428 L 434 421 L 428 421 L 428 428"/>
  <path class="p6" d="M 434 434 L 441 434 L 441 428 L 434 428 L 434 434"/>
  <path class="p6" d="M 441 434 L 448 434 L 448 428 L 441 428 L 441 434"/>
  <path class="p6" d="M 434 428 L 441 428 L 441 421 L 434 421 L 434 428"/>
  <path class="p6" d="M 441 428 L 448 428 L 448 421 L 441 421 L 441 428"/>
  <path class="p6" d="M 395 421 L 402 421 L 402 415 L 395 415 L 395 421"/>
  <path class="p6" d="M 402 421 L 408 421 L 408 415 L 402 415 L 402 421"/>
  <path class="p6" d="M 395 415 L 402 415 L 402 408 L 395 408 L 395 415"/>
  <path class="p6" d="M 402 415 L 408 415 L 408 408 L 402 408 L 402 415"/>
  <path class="p6" d="M 408 421 L 415 421 L 415 415 L 408 415 L 408 421"/>
  <path class="p6" d="M 415 421 L 421 421 L 421 415 L 415 415 L 415 421"/>
  <path class="p6" d="M 408 415 L 415 415 L 415 408 L 408 408 L 408 415"/>
  <path class="p6" d="M 415 415 L 421 415 L 421 408 L 415 408 L 415 415"/>
  <path class="p6" d="M 395 408 L 402 408 L 402 402 L 395 402 L 395 408"/>
  <path class="p6" d="M 402 408 L 408 408 L 408 402 L 402 402 L 402 408"/>
  <path class="p6" d="M 395 402 L 402 402 L 402 395 L 395 395 L 395 402"/>
  <path class="p6" d="M 402 402 L 408 402 L 408 395 L 402 395 L 402 402"/>
  <path class="p6" d="M 408 408 L 415 408 L 415 402 L 408 402 L 408 408"/>
  <path class="p6" d="M 415 408 L 421 408 L 421 402 L 415 402 L 415 408"/>
  <path class="p6" d="M 408 402 L 415 402 L 415 395 L 408 395 L 408 402"/>
  <path class="p6" d="M 415 402 L 421 402 L 421 395 L 415 395 L 415 402"/>
  <path class="p6" d="M 421 421 L 428 421 L 428 415 L 421 415 L 421 421"/>
  <path class="p6" d="M 428 421 L 434 421 L 434 415 L 428 415 L 428 421"/>
  <path class="p6" d="M 421 415 L 428 415 L 428 408 L 421 408 L 421 415"/>
  <path class="p6" d="M 428 415 L 434 415 L 434 408 L 428 408 L 428 415"/>
  <path class="p6" d="M 434 421 L 441 421 L 441 415 L 434 415 L 434 421"/>
  <path class="p6" d="M 441 421 L 448 421 L 448 415 L 441 415 L 441 421"/>
  <path class="p6" d="M 434 415 L 441 415 L 441 408 L 434 408 L 434 415"/>
  <path class="p6" d="M 441 415 L 448 415 L 448 408 L 441 408 L 441 415"/>
  <path class="p6" d="M 421 408 L 428 408 L 428 402 L 421 402 L 421 408"/>
  <path class="p6" d="M 428 408 L 434 408 L 434 402 L 428 402 L 428 408"/>
  <path class="p6" d="M 421 402 L 428 402 L 428 395 L 421 395 L 421 402"/>
  <path class="p6" d="M 428 402 L 434 402 L 434 395 L 428 395 L 428 402"/>
  <path class="p6" d="M 434 408 L 441 408 L 441 402 L 434 402 L 434 408"/>
  <path class="p6" d="M 441 408 L 448 408 L 448 402 L 441 402 L 441 408"/>
  <path class="p6" d="M 434 402 L 441 402 L 441 395 L 434 395 L 434 402"/>
  <path class="p6" d="M 441 402 L 448 402 L 448 395 L 441 395 L 441 402"/>
  <path class="p6" d="M 448 448 L 454 448 L 454 441 L 448 441 L 448 448"/>
  <path class="p6" d="M 454 448 L 461 448 L 461 441 L 454 441 L 454 448"/>
  <path class="p6" d="M 448 441 L 454 441 L 454 434 L 448 434 L 448 441"/>
  <path class="p6" d="M 454 441 L 461 441 L 461 434 L 454 434 L 454 441"/>
  <path class="p6" d="M 461 448 L 467 448 L 467 441 L 461 441 L 461 448"/>
  <path class="p6" d="M 467 448 L 474 448 L 474 441 L 467 441 L 467 448"/>
  <path class="p6" d="M 461 441 L 467 441 L 467 434 L 461 434 L 461 441"/>
  <path class="p6" d="M 467 441 L 474 441 L 474 434 L 467 434 L 467 441"/>
  <path class="p6" d="M 448 434 L 454 434 L 454 428 L 448 428 L 448 434"/>
  <path class="p6" d="M 454 434 L 461 434 L 461 428 L 454 428 L 454 434"/>
  <path class="p6" d="M 448 428 L 454 428 L 454 421 L 448 421 L 448 428"/>
  <path class="p6" d="M 454 428 L 461 428 L 461 421 L 454 421 L 454 428"/>
  <path class="p6" d="M 461 434 L 467 434 L 467 428 L 461 428 L 461 434"/>
  <path class="p6" d="M 467 434 L 474 434 L 474 428 L 467 428 L 467 434"/>
  <path class="p6" d="M 461 428 L 467 428 L 467 421 L 461 421 L 461 428"/>
  <path class="p6" d="M 467 428 L 474 428 L 474 421 L 467 421 L 467 428"/>
  <path class="p6" d="M 474 448 L 480 448 L 480 441 L 474 441 L 474 448"/>
  <path class="p6" d="M 480 448 L 487 448 L 487 441 L 480 441 L 480 448"/>
  <path class="p6" d="M 474 441 L 480 441 L 480 434 L 474 434 L 474 441"/>
  <path class="p6" d="M 480 441 L 487 441 L 487 434 L 480 434 L 480 441"/>
  <path class="p6" d="M 487 448 L 493 448 L 493 441 L 487 441 L 487 448"/>
  <path class="p6" d="M 493 448 L 500 448 L 500 441 L 493 441 L 493 448"/>
  <line x1="500" y1="448" x2="500" y2="441"/>
  <path class="p6" d="M 487 441 L 493 441 L 493 434 L 487 434 L 487 441"/>
  <path class="p6" d="M 493 441 L 500 441 L 500 434 L 493 434 L 493 441"/>
  <line x1="500" y1="441" x2="500" y2="434"/>
  <path class="p6" d="M 474 434 L 480 434 L 480 428 L 474 428 L 474 434"/>
  <path class="p6" d="M 480 434 L 487 434 L 487 428 L 480 428 L 480 434"/>
  <path class="p6" d="M 474 428 L 480 428 L 480 421 L 474 421 L 474 428"/>
  <path class="p6" d="M 480 428 L 487 428 L 487 421 L 480 421 L 480 428"/>
  <path class="p6" d="M 487 434 L 493 434 L 493 428 L 487 428 L 487 434"/>
  <path class="p6" d="M 493 434 L 500 434 L 500 428 L 493 428 L 493 434"/>
  <line x1="500" y1="434" x2="500" y2="428"/>
  <path class="p6" d="M 487 428 L 493 428 L 493 421 L 487 421 L 487 428"/>
  <path class="p6" d="M 493 428 L 500 428 L 500 421 L 493 421 L 493 428"/>
  <line x1="500" y1="428" x2="500" y2="421"/>
  <path class="p6" d="M 448 421 L 454 421 L 454 415 L 448 415 L 448 421"/>
  <path class="p6" d="M 454 421 L 461 421 L 461 415 L 454 415 L 454 421"/>
  <path class="p6" d="M 448 415 L 454 415 L 454 408 L 448 408 L 448 415"/>
  <path class="p6" d="M 454 415 L 461 415 L 461 408 L 454 408 L 454 415"/>
  <path class="p6" d="M 461 421 L 467 421 L 467 415 L 461 415 L 461 421"/>
  <path class="p6" d="M 467 421 L 474 421 L 474 415 L 467 415 L 467 421"/>
  <path class="p6" d="M 461 415 L 467 415 L 467 408 L 461 408 L 461 415"/>
  <path class="p6" d="M 467 415 L 474 415 L 474 408 L 467 408 L 467 415"/>
  <path class="p6" d="M 448 408 L 454 408 L 454 402 L 448 402 L 448 408"/>
  <path class="p6" d="M 454 408 L 461 408 L 461 402 L 454 402 L 454 408"/>
  <path class="p6" d="M 448 402 L 454 402 L 454 395 L 448 395 L 448 402"/>
  <path class="p6" d="M 454 402 L 461 402 L 461 395 L 454 395 L 454 402"/>
  <path class="p6" d="M 461 408 L 467 408 L 467 402 L 461 402 L 461 408"/>
  <path class="p6" d="M 467 408 L 474 408 L 474 402 L 467 402 L 467 408"/>
  <path class="p6" d="M 461 402 L 467 402 L 467 395 L 461 395 L 461 402"/>
  <path class="p6" d="M 467 402 L 474 402 L 474 395 L 467 395 L 467 402"/>
  <path class="p6" d="M 474 421 L 480 421 L 480 415 L 474 415 L 474 421"/>
  <path class="p6" d="M 480 421 L 487 421 L 487 415 L 480 415 L 480 421"/>
  <path class="p6" d="M 474 415 L 480 415 L 480 408 L 474 408 L 474 415"/>
  <path class="p6" d="M 480 415 L 487 415 L 487 408 L 480 408 L 480 415"/>
  <path class="p6" d="M 487 421 L 493 421 L 493 415 L 487 415 L 487 421"/>
  <path class="p6" d="M 493 421 L 500 421 L 500 415 L 493 415 L 493 421"/>
  <line x1="500" y1="421" x2="500" y2="415"/>
  <path class="p6" d="M 487 415 L 493 415 L 493 408 L 487 408 L 487 415"/>
  <path class="p6" d="M 493 415 L 500 415 L 500 408 L 493 408 L 493 415"/>
  <line x1="500" y1="415" x2="500" y2="408"/>
  <path class="p6" d="M 474 408 L 480 408 L 480 402 L 474 402 L 474 408"/>
  <path class="p6" d="M 480 408 L 487 408 L 487 402 L 480 402 L 480 408"/>
  <path class="p6" d="M 474 402 L 480 402 L 480 395 L 474 395 L 474 402"/>
  <path class="p6" d="M 480 402 L 487 402 L 487 395 L 480 395 L 480 402"/>
  <path class="p6" d="M 487 408 L 493 408 L 493 402 L 487 402 L 487 408"/>
  <path class="p6" d="M 493 408 L 500 408 L 500 402 L 493 402 L 493 408"/>
  <line x1="500" y1="408" x2="500" y2="402"/>
  <path class="p6" d="M 487 402 L 493 402 L 493 395 L 487 395 L 487 402"/>
  <path class="p6" d="M 493 402 L 500 402 L 500 395 L 493 395 L 493 402"/>
  <line x1="500" y1="402" x2="500" y2="395"/>

</svg>