<svg width="1000" height="1000" xmlns="http://www.w3.org/2000/svg" version="1.1">


<!-- internal style sheet -->
<style type="text/css"><![CDATA[
 rect.background{fill:white}
 rect{fill:none; stroke:rgb(25,25,25); stroke-width:2}
 text{font-family:Helvetica; text-anchor:middle; fill:rgb(25,25,25)}
 line{stroke:rgb(25,25,25); stroke-width:4}
 path{fill:none; stroke:rgb(25,25,25); stroke-width:2}
 circle{fill:white; stroke:black; stroke-width:2}

 path.p0{fill:rgb(0,102,255); stroke:rgb(25,25,25); stroke-width:2}
 path.ps0{fill:rgb(0,77,191); stroke:rgb(20,20,20); stroke-width:2}
 rect.r0{fill:rgb(0,102,255); stroke:rgb(25,25,25); stroke-width:2}
 path.p1{fill:rgb(51,255,0); stroke:rgb(25,25,25); stroke-width:2}
 path.ps1{fill:rgb(38,191,0); stroke:rgb(20,20,20); stroke-width:2}
 rect.r1{fill:rgb(51,255,0); stroke:rgb(25,25,25); stroke-width:2}
 path.p2{fill:rgb(255,0,0); stroke:rgb(25,25,25); stroke-width:2}
 path.ps2{fill:rgb(191,0,0); stroke:rgb(20,20,20); stroke-width:2}
 rect.r2{fill:rgb(255,0,0); stroke:rgb(25,25,25); stroke-width:2}
]]></style>

 <rect class="background" width="1000" height="1000"/>
  <!-- cells -->
  <path class="p2" d="M 203 797 L 339 888 L 367 814 L 247 753 L 203 797"/>
  <line x1="203" y1="797" x2="339" y2="888"/>
  <path class="p2" d="M 339 888 L 500 920 L 500 846 L 367 814 L 339 888"/>
  <line x1="339" y1="888" x2="500" y2="920"/>
  <path class="p2" d="M 247 753 L 367 814 L 395 741 L 290 710 L 247 753"/>
  <path class="p2" d="M 367 814 L 500 846 L 500 772 L 395 741 L 367 814"/>
  <path class="p2" d="M 500 920 L 661 888 L 633 814 L 500 846 L 500 920"/>
  <line x1="500" y1="920" x2="661" y2="888"/>
  <path class="p2" d="M 661 888 L 797 797 L 753 753 L 633 814 L 661 888"/>
  <line x1="661" y1="888" x2="797" y2="797"/>
  <path class="p2" d="M 500 846 L 633 814 L 605 741 L 500 772 L 500 846"/>
  <path class="p2" d="M 633 814 L 753 753 L 710 710 L 605 741 L 633 814"/>
  <path class="p2" d="M 290 710 L 395 741 L 417 682 L 333 667 L 290 710"/>
  <path class="p2" d="M 395 741 L 500 772 L 500 697 L 417 682 L 395 741"/>
  <path class="p2" d="M 333 667 L 417 682 L 438 623 L 377 623 L 333 667"/>
  <path class="p2" d="M 417 682 L 500 697 L 500 623 L 438 623 L 417 682"/>
  <path class="p2" d="M 500 772 L 605 741 L 583 682 L 500 697 L 500 772"/>
  <path class="p2" d="M 605 741 L 710 710 L 667 667 L 583 682 L 605 741"/>
  <path class="p2" d="M 500 697 L 583 682 L 562 623 L 500 623 L 500 697"/>
  <path class="p2" d="M 583 682 L 667 667 L 623 623 L 562 623 L 583 682"/>
  <path class="p2" d="M 203 797 L 247 753 L 186 633 L 112 661 L 203 797"/>
  <line x1="203" y1="797" x2="112" y2="661"/>
  <path class="p2" d="M 247 753 L 290 710 L 259 605 L 186 633 L 247 753"/>
  <path class="p2" d="M 112 661 L 186 633 L 154 500 L 80 500 L 112 661"/>
  <line x1="112" y1="661" x2="80" y2="500"/>
  <path class="p2" d="M 186 633 L 259 605 L 228 500 L 154 500 L 186 633"/>
  <path class="p2" d="M 290 710 L 333 667 L 318 583 L 259 605 L 290 710"/>
  <path class="p2" d="M 333 667 L 377 623 L 377 562 L 318 583 L 333 667"/>
  <path class="p2" d="M 259 605 L 318 583 L 303 500 L 228 500 L 259 605"/>
  <path class="p2" d="M 318 583 L 377 562 L 377 500 L 303 500 L 318 583"/>
  <path class="p2" d="M 80 500 L 154 500 L 186 367 L 112 339 L 80 500"/>
  <line x1="80" y1="500" x2="112" y2="339"/>
  <path class="p2" d="M 154 500 L 228 500 L 259 395 L 186 367 L 154 500"/>
  <path class="p2" d="M 112 339 L 186 367 L 247 247 L 203 203 L 112 339"/>
  <line x1="112" y1="339" x2="203" y2="203"/>
  <path class="p2" d="M 186 367 L 259 395 L 290 290 L 247 247 L 186 367"/>
  <path class="p2" d="M 228 500 L 303 500 L 318 417 L 259 395 L 228 500"/>
  <path class="p2" d="M 303 500 L 377 500 L 377 438 L 318 417 L 303 500"/>
  <path class="p2" d="M 259 395 L 318 417 L 333 333 L 290 290 L 259 395"/>
  <path class="p2" d="M 318 417 L 377 438 L 377 377 L 333 333 L 318 417"/>
  <path class="p2" d="M 377 623 L 438 623 L 438 562 L 377 562 L 377 623"/>
  <path class="p2" d="M 438 623 L 500 623 L 500 562 L 438 562 L 438 623"/>
  <path class="p2" d="M 377 562 L 438 562 L 438 500 L 377 500 L 377 562"/>
  <path class="p2" d="M 438 562 L 500 562 L 500 500 L 438 500 L 438 562"/>
  <path class="p2" d="M 500 623 L 562 623 L 562 562 L 500 562 L 500 623"/>
  <path class="p2" d="M 562 623 L 623 623 L 623 562 L 562 562 L 562 623"/>
  <path class="p2" d="M 500 562 L 562 562 L 562 500 L 500 500 L 500 562"/>
  <path class="p2" d="M 562 562 L 623 562 L 623 500 L 562 500 L 562 562"/>
  <path class="p2" d="M 377 500 L 438 500 L 438 438 L 377 438 L 377 500"/>
  <path class="p2" d="M 438 500 L 500 500 L 500 438 L 438 438 L 438 500"/>
  <path class="p2" d="M 377 438 L 438 438 L 438 377 L 377 377 L 377 438"/>
  <path class="p2" d="M 438 438 L 500 438 L 500 377 L 438 377 L 438 438"/>
  <path class="p2" d="M 500 500 L 562 500 L 562 438 L 500 438 L 500 500"/>
  <path class="p2" d="M 562 500 L 623 500 L 623 438 L 562 438 L 562 500"/>
  <path class="p2" d="M 500 438 L 562 438 L 562 377 L 500 377 L 500 438"/>
  <path class="p2" d="M 562 438 L 623 438 L 623 377 L 562 377 L 562 438"/>
  <path class="p2" d="M 797 797 L 888 661 L 814 633 L 753 753 L 797 797"/>
  <line x1="797" y1="797" x2="888" y2="661"/>
  <path class="p2" d="M 888 661 L 920 500 L 846 500 L 814 633 L 888 661"/>
  <line x1="888" y1="661" x2="920" y2="500"/>
  <path class="p2" d="M 753 753 L 814 633 L 741 605 L 710 710 L 753 753"/>
  <path class="p2" d="M 814 633 L 846 500 L 772 500 L 741 605 L 814 633"/>
  <path class="p2" d="M 920 500 L 888 339 L 814 367 L 846 500 L 920 500"/>
  <line x1="920" y1="500" x2="888" y2="339"/>
  <path class="p2" d="M 888 339 L 797 203 L 753 247 L 814 367 L 888 339"/>
  <line x1="888" y1="339" x2="797" y2="203"/>
  <path class="p2" d="M 846 500 L 814 367 L 741 395 L 772 500 L 846 500"/>
  <path class="p2" d="M 814 367 L 753 247 L 710 290 L 741 395 L 814 367"/>
  <path class="p2" d="M 710 710 L 741 605 L 682 583 L 667 667 L 710 710"/>
  <path class="p2" d="M 741 605 L 772 500 L 697 500 L 682 583 L 741 605"/>
  <path class="p2" d="M 667 667 L 682 583 L 623 562 L 623 623 L 667 667"/>
  <path class="p2" d="M 682 583 L 697 500 L 623 500 L 623 562 L 682 583"/>
  <path class="p2" d="M 772 500 L 741 395 L 682 417 L 697 500 L 772 500"/>
  <path class="p2" d="M 741 395 L 710 290 L 667 333 L 682 417 L 741 395"/>
  <path class="p2" d="M 697 500 L 682 417 L 623 438 L 623 500 L 697 500"/>
  <path class="p2" d="M 682 417 L 667 333 L 623 377 L 623 438 L 682 417"/>
  <path class="p2" d="M 203 203 L 247 247 L 367 186 L 339 112 L 203 203"/>
  <line x1="203" y1="203" x2="339" y2="112"/>
  <path class="p2" d="M 247 247 L 290 290 L 395 259 L 367 186 L 247 247"/>
  <path class="p2" d="M 339 112 L 367 186 L 500 154 L 500 80 L 339 112"/>
  <line x1="339" y1="112" x2="500" y2="80"/>
  <path class="p2" d="M 367 186 L 395 259 L 500 228 L 500 154 L 367 186"/>
  <path class="p2" d="M 290 290 L 333 333 L 417 318 L 395 259 L 290 290"/>
  <path class="p2" d="M 333 333 L 377 377 L 438 377 L 417 318 L 333 333"/>
  <path class="p2" d="M 395 259 L 417 318 L 500 303 L 500 228 L 395 259"/>
  <path class="p2" d="M 417 318 L 438 377 L 500 377 L 500 303 L 417 318"/>
  <path class="p2" d="M 500 80 L 500 154 L 633 186 L 661 112 L 500 80"/>
  <line x1="500" y1="80" x2="661" y2="112"/>
  <path class="p2" d="M 500 154 L 500 228 L 605 259 L 633 186 L 500 154"/>
  <path class="p2" d="M 661 112 L 633 186 L 753 247 L 797 203 L 661 112"/>
  <line x1="661" y1="112" x2="797" y2="203"/>
  <path class="p2" d="M 633 186 L 605 259 L 710 290 L 753 247 L 633 186"/>
  <path class="p2" d="M 500 228 L 500 303 L 583 318 L 605 259 L 500 228"/>
  <path class="p2" d="M 500 303 L 500 377 L 562 377 L 583 318 L 500 303"/>
  <path class="p2" d="M 605 259 L 583 318 L 667 333 L 710 290 L 605 259"/>
  <path class="p2" d="M 583 318 L 562 377 L 623 377 L 667 333 L 583 318"/>

</svg>